<?xml version="1.0" encoding="UTF-8" standalone="no"?>
<!-- Created with Inkscape (http://www.inkscape.org/) -->

<svg
   id="svg5"
   version="1.1"
   viewBox="0 0 132.06491 148.77019"
   height="148.77019mm"
   width="132.06491mm"
   xmlns:xlink="http://www.w3.org/1999/xlink"
   xmlns="http://www.w3.org/2000/svg"
   xmlns:svg="http://www.w3.org/2000/svg"
   xmlns:ns1="http://www.iki.fi/pav/software/textext/">
  <defs
     id="defs2">
    <marker
       style="overflow:visible"
       id="TriangleStart"
       refX="0"
       refY="0"
       orient="auto-start-reverse"
       markerWidth="5.3244081"
       markerHeight="6.155385"
       viewBox="0 0 5.3244081 6.1553851"
       preserveAspectRatio="xMidYMid">
      <path
         transform="scale(0.5)"
         style="fill:context-stroke;fill-rule:evenodd;stroke:context-stroke;stroke-width:1pt"
         d="M 5.77,0 -2.88,5 V -5 Z"
         id="path135" />
    </marker>
    <pattern
       patternUnits="userSpaceOnUse"
       width="1.8897599"
       height="241.92688"
       patternTransform="translate(275.00146,455.79477)"
       id="pattern1975">
      <path
         style="display:inline;fill:#000000;stroke:#000000;stroke-width:1.88976;stroke-opacity:1"
         d="M 0.94487997,0 V 241.92688"
         id="path1972" />
    </pattern>
    <pattern
       patternUnits="userSpaceOnUse"
       width="6.7559093"
       height="289.26021"
       patternTransform="translate(107.77045,781.57708)"
       id="pattern8117">
      <path
         style="opacity:0.433371;fill:none;fill-opacity:1;stroke:#000000;stroke-width:0.755906;stroke-dasharray:none;stroke-dashoffset:0;stroke-opacity:1"
         d="M 0.37795276,0 V 289.26021"
         id="path8075" />
      <path
         style="opacity:0.433371;fill:none;fill-opacity:1;stroke:#000000;stroke-width:0.755906;stroke-dasharray:none;stroke-dashoffset:0;stroke-opacity:1"
         d="M 6.3779565,0 V 289.26021"
         id="path8091" />
    </pattern>
    <clipPath
       clipPathUnits="userSpaceOnUse"
       id="clipPath8244">
      <path
         id="path8246"
         style="display:none;fill:#ffffff;fill-opacity:1;stroke:none;stroke-width:0.762079;stroke-dasharray:0.762079, 0.762079;stroke-dashoffset:0;stroke-opacity:1"
         d="m 136.22461,425.10158 v 76.15429 h 109.14844 v 43.36719 h 59.25781 V 485.36329 H 261.5293 v -60.26171 z" />
      <path
         id="lpe_path-effect8252"
         style="display:inline;fill:#ffffff;fill-opacity:1;stroke:none;stroke-width:0.762079;stroke-dasharray:0.762079, 0.762079;stroke-dashoffset:0;stroke-opacity:1"
         class="powerclip"
         d="m 270.00146,450.79477 h 11.88976 V 702.72165 H 270.00146 Z M 136.22461,425.10158 v 76.15429 h 109.14844 v 43.36719 h 59.25781 V 485.36329 H 261.5293 v -60.26171 z" />
    </clipPath>
    <clipPath
       clipPathUnits="userSpaceOnUse"
       id="clipPath8248">
      <path
         id="path8250"
         style="display:none;fill:#ffffff;fill-opacity:1;stroke:none;stroke-width:0.201633;stroke-dasharray:0.201633, 0.201633;stroke-dashoffset:0;stroke-opacity:1"
         d="m 36.042761,112.47479 v 20.14916 h 28.878858 v 11.47423 H 80.600248 V 128.41903 H 69.196294 v -15.94424 z" />
      <path
         id="lpe_path-effect8256"
         style="display:inline;fill:#ffffff;fill-opacity:1;stroke:none;stroke-width:0.201633;stroke-dasharray:0.201633, 0.201633;stroke-dashoffset:0;stroke-opacity:1"
         class="powerclip"
         d="M 46.516788,91.903487 H 171.55067 V 192.67197 H 46.516788 Z M 36.042761,112.47479 v 20.14916 h 28.878858 v 11.47423 H 80.600248 V 128.41903 H 69.196294 v -15.94424 z" />
    </clipPath>
    <clipPath
       clipPathUnits="userSpaceOnUse"
       id="clipPath25431">
      <rect
         style="display:none;opacity:1;fill:none;fill-opacity:1;stroke:none;stroke-width:0.734761;stroke-dasharray:none;stroke-opacity:1"
         id="rect25433"
         width="24.675745"
         height="15.31356"
         x="37.2798"
         y="132.79405" />
      <path
         id="lpe_path-effect25461"
         style="display:inline;opacity:1;fill:none;fill-opacity:1;stroke:none;stroke-width:0.734761;stroke-dasharray:none;stroke-opacity:1"
         class="powerclip"
         d="M 46.688931,94.799935 H 171.48589 V 141.37316 H 46.688931 Z M 37.2798,132.79405 v 15.31356 h 24.675745 v -15.31356 z" />
    </clipPath>
    <clipPath
       clipPathUnits="userSpaceOnUse"
       id="clipPath25435">
      <rect
         style="display:none;opacity:1;fill:none;fill-opacity:1;stroke:none;stroke-width:0.734761;stroke-dasharray:none;stroke-opacity:1"
         id="rect25437"
         width="24.675745"
         height="15.31356"
         x="37.2798"
         y="132.79405" />
      <path
         id="lpe_path-effect25465"
         style="display:inline;opacity:1;fill:none;fill-opacity:1;stroke:none;stroke-width:0.734761;stroke-dasharray:none;stroke-opacity:1"
         class="powerclip"
         d="M 46.766804,106.1534 H 171.4859 v 54.79743 H 46.766804 Z M 37.2798,132.79405 v 15.31356 h 24.675745 v -15.31356 z" />
    </clipPath>
    <clipPath
       clipPathUnits="userSpaceOnUse"
       id="clipPath25439">
      <rect
         style="display:none;opacity:1;fill:none;fill-opacity:1;stroke:none;stroke-width:0.734761;stroke-dasharray:none;stroke-opacity:1"
         id="rect25441"
         width="24.675745"
         height="15.31356"
         x="37.2798"
         y="132.79405" />
      <path
         id="lpe_path-effect25469"
         style="display:inline;opacity:1;fill:none;fill-opacity:1;stroke:none;stroke-width:0.734761;stroke-dasharray:none;stroke-opacity:1"
         class="powerclip"
         d="M 46.766811,125.46634 H 171.48588 v 47.15055 H 46.766811 Z m -9.487011,7.32771 v 15.31356 h 24.675745 v -15.31356 z" />
    </clipPath>
    <clipPath
       clipPathUnits="userSpaceOnUse"
       id="clipPath25443">
      <rect
         style="display:none;opacity:1;fill:none;fill-opacity:1;stroke:none;stroke-width:0.734761;stroke-dasharray:none;stroke-opacity:1"
         id="rect25445"
         width="24.675745"
         height="15.31356"
         x="37.2798"
         y="132.79405" />
      <path
         id="lpe_path-effect25473"
         style="display:inline;opacity:1;fill:none;fill-opacity:1;stroke:none;stroke-width:0.734761;stroke-dasharray:none;stroke-opacity:1"
         class="powerclip"
         d="M 46.688914,141.73723 H 171.48587 v 46.82226 H 46.688914 Z M 37.2798,132.79405 v 15.31356 h 24.675745 v -15.31356 z" />
    </clipPath>
    <clipPath
       clipPathUnits="userSpaceOnUse"
       id="clipPath25447">
      <rect
         style="display:none;opacity:1;fill:none;fill-opacity:1;stroke:none;stroke-width:0.734761;stroke-dasharray:none;stroke-opacity:1"
         id="rect25449"
         width="24.675745"
         height="15.31356"
         x="37.2798"
         y="132.79405"
         d="m 37.2798,132.79405 h 24.675745 v 15.31356 H 37.2798 Z" />
      <path
         id="lpe_path-effect25477"
         style="display:inline;opacity:1;fill:none;fill-opacity:1;stroke:none;stroke-width:0.734761;stroke-dasharray:none;stroke-opacity:1"
         class="powerclip"
         d="m 46.516788,107.89127 h 10.499998 v 74.00982 H 46.516788 Z M 37.2798,132.79405 v 15.31356 h 24.675745 v -15.31356 z" />
    </clipPath>
    <clipPath
       clipPathUnits="userSpaceOnUse"
       id="clipPath25451">
      <rect
         style="display:none;opacity:1;fill:none;fill-opacity:1;stroke:none;stroke-width:0.734761;stroke-dasharray:none;stroke-opacity:1"
         id="rect25453"
         width="24.675745"
         height="15.31356"
         x="37.2798"
         y="132.79405"
         d="m 37.2798,132.79405 h 24.675745 v 15.31356 H 37.2798 Z" />
      <path
         id="lpe_path-effect25481"
         style="display:inline;opacity:1;fill:none;fill-opacity:1;stroke:none;stroke-width:0.734761;stroke-dasharray:none;stroke-opacity:1"
         class="powerclip"
         d="m 161.05068,96.79212 h 10.5 v 74.00982 h -10.5 z M 37.2798,132.79405 v 15.31356 h 24.675745 v -15.31356 z" />
    </clipPath>
  </defs>
  <g
     id="layer1"
     style="display:none"
     transform="translate(-37.827798,-84.498418)">
    <path
       id="path5717-3-2"
       style="display:inline;opacity:1;mix-blend-mode:normal;fill:url(#pattern8117);fill-opacity:1;stroke:#000000;stroke-width:0.499999;stroke-opacity:1"
       d="m 74.043447,120.71395 c -6.40167,-1.68253 -13.75802,-4.22407 -22.27666,-7.82268 v 64.00982 c 8.51864,3.59861 15.87499,6.14015 22.27666,7.82268 57.636623,15.14842 37.885793,-39.33625 92.257223,-18.92183 v -64.00982 c -54.37143,-20.414425 -34.6206,34.07025 -92.257223,18.92183 z"
       clip-path="url(#clipPath8248)" />
    <path
       style="display:inline;opacity:1;fill:none;fill-opacity:1;stroke:#9966ff;stroke-width:0.8;stroke-dasharray:none;stroke-opacity:1"
       d="m 51.864074,218.94081 c 8.518636,3.59861 15.874989,6.14015 22.276657,7.82268 57.636629,15.14842 37.885799,-39.33625 92.257229,-18.92183"
       id="path5717-3" />
    <path
       style="display:inline;fill:none;stroke:#cc0066;stroke-width:0.499999;stroke-opacity:1"
       d="m 53.013528,221.53941 42.254405,10.44816"
       id="path5746" />
    <path
       style="display:inline;fill:none;stroke:#cc0066;stroke-width:0.499999;stroke-opacity:1"
       d="M 126.77256,218.16438 86.738337,235.24831"
       id="path5746-6-5" />
    <path
       style="display:inline;fill:none;stroke:#cc0066;stroke-width:0.499999;stroke-opacity:1"
       d="m 145.39518,196.52861 -35.12179,25.71108"
       id="path5746-6" />
    <path
       style="display:inline;fill:none;stroke:#cc0066;stroke-width:0.499999;stroke-opacity:1"
       d="m 123.86678,201.00427 43.35214,3.89752"
       id="path5746-7" />
    <circle
       style="fill:#000000;fill-opacity:1;stroke:#000000;stroke-width:0.499999"
       id="path5883"
       cx="73.010803"
       cy="226.76349"
       r="1.129926" />
    <circle
       style="display:inline;fill:#000000;fill-opacity:1;stroke:#000000;stroke-width:0.499999"
       id="circle5887"
       cx="106.75545"
       cy="226.70634"
       r="1.129926" />
    <circle
       style="display:inline;fill:#000000;fill-opacity:1;stroke:#000000;stroke-width:0.499999"
       id="circle5885"
       cx="127.83428"
       cy="209.38416"
       r="1.129926" />
    <circle
       style="display:inline;fill:#000000;fill-opacity:1;stroke:#000000;stroke-width:0.499999"
       id="circle5893"
       cx="145.54285"
       cy="202.95303"
       r="1.129926" />
    <path
       style="display:none;fill:url(#pattern1975);stroke:none"
       transform="scale(0.26458333)"
       width="1.8897599"
       height="241.92688"
       x="275.00146"
       y="455.79477"
       id="rect1978"
       clip-path="url(#clipPath8244)"
       d="m 275.00146,455.79477 h 1.88976 v 241.92688 h -1.88976 z" />
    <g
       transform="matrix(1.7464683,0,0,1.7464683,150.43095,213.42948)"
       ns1:version="1.8.2"
       ns1:texconverter="pdflatex"
       ns1:pdfconverter="inkscape"
       ns1:text="$X$"
       ns1:preamble="/home/fox/.config/inkscape/extensions/textext/default_packages.tex"
       ns1:scale="1.0"
       ns1:alignment="middle center"
       ns1:stroke-to-path="0"
       ns1:inkscapeversion="1.2.2"
       ns1:jacobian_sqrt="0.352778"
       id="g1245"
       style="display:inline;fill:#9966ff;stroke:#9966ff">
      <defs
         id="id-8d36aa6b-b030-4803-b4e6-a596c3d0091a" />
      <rect
         style="display:none;opacity:1;fill:none;fill-opacity:1;stroke:none;stroke-width:0.587989;stroke-dasharray:0.587989, 0.587989;stroke-dashoffset:0;stroke-opacity:1"
         id="rect8189"
         width="14.600576"
         height="13.349667"
         x="150.3069"
         y="144.86917"
         transform="matrix(0.57258412,0,0,0.57258412,-86.134372,-83.365939)" />
      <g
         id="id-8b86aa22-2548-4686-bf0d-81aa60e9ee74"
         transform="translate(-148.978,-127.953)"
         style="fill:#9966ff;stroke:#9966ff">
        <g
           style="fill:#9966ff;fill-opacity:1;stroke:#9966ff"
           id="id-1d7d8cf6-3ab0-492a-9ec7-54471e2d37fa">
          <g
             transform="translate(148.712,134.765)"
             id="g1241"
             style="fill:#9966ff;stroke:#9966ff">
            <path
               style="fill:#9966ff;stroke:#9966ff;stroke-width:0"
               d="M 4.828125,-4.09375 4,-6.078125 c -0.03125,-0.078125 -0.046875,-0.125 -0.046875,-0.125 0,-0.0625 0.15625,-0.25 0.578125,-0.296875 0.109375,-0.015625 0.203125,-0.015625 0.203125,-0.1875 0,-0.125 -0.125,-0.125 -0.15625,-0.125 -0.40625,0 -0.828125,0.03125 -1.25,0.03125 -0.25,0 -0.859375,-0.03125 -1.109375,-0.03125 -0.0625,0 -0.1875,0 -0.1875,0.203125 C 2.03125,-6.5 2.140625,-6.5 2.265625,-6.5 c 0.59375,0 0.65625,0.09375 0.75,0.3125 l 1.171875,2.78125 -2.109375,2.265625 -0.125,0.109375 C 1.46875,-0.5 1,-0.34375 0.484375,-0.3125 c -0.125,0.015625 -0.21875,0.015625 -0.21875,0.203125 0,0.015625 0,0.109375 0.140625,0.109375 0.296875,0 0.625,-0.03125 0.921875,-0.03125 C 1.703125,-0.03125 2.09375,0 2.453125,0 2.515625,0 2.625,0 2.625,-0.203125 2.625,-0.296875 2.53125,-0.3125 2.515625,-0.3125 c -0.09375,0 -0.40625,-0.03125 -0.40625,-0.3125 0,-0.15625 0.15625,-0.3125 0.265625,-0.4375 L 3.40625,-2.140625 4.296875,-3.125 l 1,2.390625 c 0.046875,0.109375 0.0625,0.109375 0.0625,0.140625 0,0.078125 -0.203125,0.25 -0.578125,0.28125 C 4.671875,-0.296875 4.578125,-0.296875 4.578125,-0.125 4.578125,0 4.6875,0 4.71875,0 5,0 5.703125,-0.03125 5.984375,-0.03125 6.234375,-0.03125 6.84375,0 7.09375,0 c 0.0625,0 0.1875,0 0.1875,-0.1875 0,-0.125 -0.109375,-0.125 -0.1875,-0.125 -0.65625,0 -0.6875,-0.03125 -0.859375,-0.4375 C 5.859375,-1.671875 5.1875,-3.234375 4.953125,-3.828125 5.625,-4.53125 6.671875,-5.71875 7,-5.984375 7.28125,-6.234375 7.671875,-6.46875 8.265625,-6.5 c 0.125,-0.015625 0.21875,-0.015625 0.21875,-0.203125 0,0 0,-0.109375 -0.125,-0.109375 -0.296875,0 -0.640625,0.03125 -0.9375,0.03125 -0.375,0 -0.75,-0.03125 -1.109375,-0.03125 -0.0625,0 -0.1875,0 -0.1875,0.203125 0,0.0625 0.046875,0.09375 0.109375,0.109375 0.09375,0.015625 0.40625,0.03125 0.40625,0.3125 0,0.140625 -0.109375,0.265625 -0.1875,0.359375 z m 0,0"
               id="id-e0dd0768-28ec-464b-925c-828af99c0b53" />
          </g>
        </g>
      </g>
    </g>
    <g
       transform="matrix(1.7521263,0,0,1.7521263,36.042008,228.14429)"
       ns1:version="1.8.2"
       ns1:texconverter="pdflatex"
       ns1:pdfconverter="inkscape"
       ns1:text="$T_xX$"
       ns1:preamble="/home/fox/.config/inkscape/extensions/textext/default_packages.tex"
       ns1:scale="1.0"
       ns1:alignment="middle center"
       ns1:stroke-to-path="0"
       ns1:inkscapeversion="1.2.2"
       ns1:jacobian_sqrt="0.352778"
       id="g8510">
      <defs
         id="id-19f6ebe0-759d-4df9-b61a-d302d56959d1" />
      <rect
         style="display:none;opacity:1;fill:none;fill-opacity:1;stroke:none;stroke-width:0.184457;stroke-dasharray:0.184457, 0.184457;stroke-dashoffset:0;stroke-opacity:1"
         id="rect8602"
         width="35.061546"
         height="15.945011"
         x="35.224342"
         y="160.30991"
         transform="matrix(0.57073512,0,0,0.57073512,-20.570439,-91.897165)" />
      <g
         id="id-30c7f71b-7d82-4639-9d14-092ee86cf640"
         transform="translate(-148.946,-127.953)"
         style="fill:#cc0066">
        <g
           style="fill:#cc0066;fill-opacity:1"
           id="id-a44ea19b-0858-4d1a-893d-67b284621299">
          <g
             transform="translate(148.712,134.765)"
             id="g8498"
             style="fill:#cc0066">
            <path
               style="fill:#cc0066;stroke:none;stroke-width:0"
               d="m 4.25,-6.046875 c 0.078125,-0.28125 0.109375,-0.34375 0.234375,-0.375 0.09375,-0.015625 0.421875,-0.015625 0.625,-0.015625 1.015625,0 1.453125,0.03125 1.453125,0.8125 0,0.15625 -0.03125,0.546875 -0.078125,0.796875 0,0.046875 -0.03125,0.15625 -0.03125,0.1875 0,0.0625 0.03125,0.140625 0.125,0.140625 0.109375,0 0.125,-0.078125 0.15625,-0.234375 L 7,-6.46875 C 7.015625,-6.515625 7.015625,-6.609375 7.015625,-6.640625 7.015625,-6.75 6.921875,-6.75 6.75,-6.75 H 1.21875 c -0.234375,0 -0.25,0.015625 -0.328125,0.203125 l -0.59375,1.75 c 0,0.015625 -0.0625,0.15625 -0.0625,0.1875 0,0.046875 0.0625,0.109375 0.125,0.109375 0.09375,0 0.109375,-0.0625 0.171875,-0.21875 C 1.0625,-6.265625 1.328125,-6.4375 2.796875,-6.4375 H 3.1875 c 0.28125,0 0.28125,0.03125 0.28125,0.125 0,0.046875 -0.03125,0.171875 -0.046875,0.203125 L 2.09375,-0.78125 C 2,-0.421875 1.96875,-0.3125 0.90625,-0.3125 c -0.359375,0 -0.421875,0 -0.421875,0.1875 C 0.484375,0 0.59375,0 0.65625,0 c 0.265625,0 0.546875,-0.015625 0.8125,-0.015625 0.28125,0 0.578125,-0.015625 0.859375,-0.015625 0.28125,0 0.546875,0.015625 0.828125,0.015625 C 3.4375,-0.015625 3.734375,0 4.015625,0 c 0.09375,0 0.21875,0 0.21875,-0.203125 0,-0.109375 -0.078125,-0.109375 -0.34375,-0.109375 -0.234375,0 -0.375,0 -0.625,-0.015625 -0.296875,-0.03125 -0.375,-0.0625 -0.375,-0.21875 0,-0.015625 0,-0.0625 0.046875,-0.203125 z m 0,0"
               id="id-c96befe3-922b-4ef3-b0e0-3da6d00a0658" />
          </g>
        </g>
        <g
           style="fill:#cc0066;fill-opacity:1"
           id="id-af228374-76bf-4676-b980-865785e6a42c">
          <g
             transform="translate(154.534,136.259)"
             id="g8502"
             style="fill:#cc0066">
            <path
               style="fill:#cc0066;stroke:none;stroke-width:0"
               d="M 1.734375,-0.734375 C 1.671875,-0.5 1.4375,-0.125 1.078125,-0.125 c -0.015625,0 -0.234375,0 -0.375,-0.09375 0.28125,-0.09375 0.3125,-0.34375 0.3125,-0.390625 0,-0.15625 -0.125,-0.25 -0.28125,-0.25 -0.203125,0 -0.40625,0.15625 -0.40625,0.421875 0,0.34375 0.390625,0.5 0.734375,0.5 0.328125,0 0.609375,-0.1875 0.78125,-0.484375 C 2.015625,-0.0625 2.390625,0.0625 2.671875,0.0625 c 0.8125,0 1.234375,-0.859375 1.234375,-1.0625 0,-0.09375 -0.09375,-0.09375 -0.109375,-0.09375 -0.109375,0 -0.109375,0.046875 -0.140625,0.125 -0.140625,0.484375 -0.5625,0.84375 -0.953125,0.84375 -0.28125,0 -0.421875,-0.1875 -0.421875,-0.453125 0,-0.1875 0.171875,-0.8125 0.359375,-1.59375 C 2.78125,-2.703125 3.09375,-2.875 3.328125,-2.875 c 0.015625,0 0.21875,0 0.375,0.09375 -0.21875,0.0625 -0.3125,0.265625 -0.3125,0.390625 0,0.140625 0.125,0.25 0.28125,0.25 0.15625,0 0.390625,-0.125 0.390625,-0.421875 0,-0.390625 -0.453125,-0.515625 -0.71875,-0.515625 -0.359375,0 -0.640625,0.234375 -0.78125,0.5 -0.125,-0.28125 -0.453125,-0.5 -0.84375,-0.5 C 0.9375,-3.078125 0.5,-2.21875 0.5,-2 c 0,0.078125 0.09375,0.078125 0.109375,0.078125 0.09375,0 0.09375,-0.015625 0.140625,-0.109375 C 0.921875,-2.578125 1.359375,-2.875 1.703125,-2.875 1.9375,-2.875 2.125,-2.75 2.125,-2.421875 2.125,-2.28125 2.03125,-1.9375 1.96875,-1.6875 Z m 0,0"
               id="id-c8e95905-e7fd-4dbb-b322-5954e24850bf" />
          </g>
        </g>
        <g
           style="fill:#cc0066;fill-opacity:1"
           id="id-034a3b96-d9da-462c-884e-15885ac5df33">
          <g
             transform="translate(159.55,134.765)"
             id="g8506"
             style="fill:#cc0066">
            <path
               style="fill:#cc0066;stroke:none;stroke-width:0"
               d="M 4.828125,-4.09375 4,-6.078125 c -0.03125,-0.078125 -0.046875,-0.125 -0.046875,-0.125 0,-0.0625 0.15625,-0.25 0.578125,-0.296875 0.109375,-0.015625 0.203125,-0.015625 0.203125,-0.1875 0,-0.125 -0.125,-0.125 -0.15625,-0.125 -0.40625,0 -0.828125,0.03125 -1.25,0.03125 -0.25,0 -0.859375,-0.03125 -1.109375,-0.03125 -0.0625,0 -0.1875,0 -0.1875,0.203125 C 2.03125,-6.5 2.140625,-6.5 2.265625,-6.5 c 0.59375,0 0.65625,0.09375 0.75,0.3125 l 1.171875,2.78125 -2.109375,2.265625 -0.125,0.109375 C 1.46875,-0.5 1,-0.34375 0.484375,-0.3125 c -0.125,0.015625 -0.21875,0.015625 -0.21875,0.203125 0,0.015625 0,0.109375 0.140625,0.109375 0.296875,0 0.625,-0.03125 0.921875,-0.03125 C 1.703125,-0.03125 2.09375,0 2.453125,0 2.515625,0 2.625,0 2.625,-0.203125 2.625,-0.296875 2.53125,-0.3125 2.515625,-0.3125 c -0.09375,0 -0.40625,-0.03125 -0.40625,-0.3125 0,-0.15625 0.15625,-0.3125 0.265625,-0.4375 L 3.40625,-2.140625 4.296875,-3.125 l 1,2.390625 c 0.046875,0.109375 0.0625,0.109375 0.0625,0.140625 0,0.078125 -0.203125,0.25 -0.578125,0.28125 C 4.671875,-0.296875 4.578125,-0.296875 4.578125,-0.125 4.578125,0 4.6875,0 4.71875,0 5,0 5.703125,-0.03125 5.984375,-0.03125 6.234375,-0.03125 6.84375,0 7.09375,0 c 0.0625,0 0.1875,0 0.1875,-0.1875 0,-0.125 -0.109375,-0.125 -0.1875,-0.125 -0.65625,0 -0.6875,-0.03125 -0.859375,-0.4375 C 5.859375,-1.671875 5.1875,-3.234375 4.953125,-3.828125 5.625,-4.53125 6.671875,-5.71875 7,-5.984375 7.28125,-6.234375 7.671875,-6.46875 8.265625,-6.5 c 0.125,-0.015625 0.21875,-0.015625 0.21875,-0.203125 0,0 0,-0.109375 -0.125,-0.109375 -0.296875,0 -0.640625,0.03125 -0.9375,0.03125 -0.375,0 -0.75,-0.03125 -1.109375,-0.03125 -0.0625,0 -0.1875,0 -0.1875,0.203125 0,0.0625 0.046875,0.09375 0.109375,0.109375 0.09375,0.015625 0.40625,0.03125 0.40625,0.3125 0,0.140625 -0.109375,0.265625 -0.1875,0.359375 z m 0,0"
               id="id-ab050d76-99de-43e4-a99c-560bc40c4507" />
          </g>
        </g>
      </g>
    </g>
    <g
       transform="matrix(1.7744414,0,0,1.7744414,15.021771,139.27471)"
       ns1:version="1.8.2"
       ns1:texconverter="pdflatex"
       ns1:pdfconverter="inkscape"
       ns1:text="$T_yY$"
       ns1:preamble="/home/fox/.config/inkscape/extensions/textext/default_packages.tex"
       ns1:scale="1.0"
       ns1:alignment="middle center"
       ns1:stroke-to-path="0"
       ns1:inkscapeversion="1.2.2"
       ns1:jacobian_sqrt="0.352778"
       id="g8776">
      <defs
         id="id-14b5109a-e154-4859-b6fb-a6e63b1ce69c" />
      <rect
         style="display:none;fill:none;fill-opacity:1;stroke:none;stroke-width:0.113632;stroke-dasharray:0.113632, 0.113632;stroke-dashoffset:0;stroke-opacity:1"
         id="rect8602-3"
         width="18.684021"
         height="11.355178"
         x="11.846485"
         y="-15.103199" />
      <g
         id="id-b3994aee-8ac5-460a-87a1-086ed90227c5"
         transform="translate(-136.62348,-142.00023)"
         style="fill:#996600">
        <g
           style="fill:#996600;fill-opacity:1"
           id="id-b9c108c7-93f1-4f8b-acec-a7cf5c2d3ea1">
          <g
             transform="translate(148.712,134.765)"
             id="g8764"
             style="fill:#996600">
            <path
               style="fill:#996600;stroke:none;stroke-width:0"
               d="m 4.25,-6.046875 c 0.078125,-0.28125 0.109375,-0.34375 0.234375,-0.375 0.09375,-0.015625 0.421875,-0.015625 0.625,-0.015625 1.015625,0 1.453125,0.03125 1.453125,0.8125 0,0.15625 -0.03125,0.546875 -0.078125,0.796875 0,0.046875 -0.03125,0.15625 -0.03125,0.1875 0,0.0625 0.03125,0.140625 0.125,0.140625 0.109375,0 0.125,-0.078125 0.15625,-0.234375 L 7,-6.46875 C 7.015625,-6.515625 7.015625,-6.609375 7.015625,-6.640625 7.015625,-6.75 6.921875,-6.75 6.75,-6.75 H 1.21875 c -0.234375,0 -0.25,0.015625 -0.328125,0.203125 l -0.59375,1.75 c 0,0.015625 -0.0625,0.15625 -0.0625,0.1875 0,0.046875 0.0625,0.109375 0.125,0.109375 0.09375,0 0.109375,-0.0625 0.171875,-0.21875 C 1.0625,-6.265625 1.328125,-6.4375 2.796875,-6.4375 H 3.1875 c 0.28125,0 0.28125,0.03125 0.28125,0.125 0,0.046875 -0.03125,0.171875 -0.046875,0.203125 L 2.09375,-0.78125 C 2,-0.421875 1.96875,-0.3125 0.90625,-0.3125 c -0.359375,0 -0.421875,0 -0.421875,0.1875 C 0.484375,0 0.59375,0 0.65625,0 c 0.265625,0 0.546875,-0.015625 0.8125,-0.015625 0.28125,0 0.578125,-0.015625 0.859375,-0.015625 0.28125,0 0.546875,0.015625 0.828125,0.015625 C 3.4375,-0.015625 3.734375,0 4.015625,0 c 0.09375,0 0.21875,0 0.21875,-0.203125 0,-0.109375 -0.078125,-0.109375 -0.34375,-0.109375 -0.234375,0 -0.375,0 -0.625,-0.015625 -0.296875,-0.03125 -0.375,-0.0625 -0.375,-0.21875 0,-0.015625 0,-0.0625 0.046875,-0.203125 z m 0,0"
               id="id-47cc0ced-8b17-4dfb-9689-2b12343ad516" />
          </g>
        </g>
        <g
           style="fill:#996600;fill-opacity:1"
           id="id-d2c76eb8-297e-4c2d-b7d4-174a47165f07">
          <g
             transform="translate(154.534,136.259)"
             id="g8768"
             style="fill:#996600">
            <path
               style="fill:#996600;stroke:none;stroke-width:0"
               d="M 3.875,-2.625 C 3.90625,-2.71875 3.90625,-2.734375 3.90625,-2.78125 3.90625,-2.921875 3.796875,-3 3.671875,-3 3.59375,-3 3.46875,-2.96875 3.390625,-2.84375 3.359375,-2.796875 3.3125,-2.578125 3.28125,-2.4375 L 3.125,-1.859375 c -0.03125,0.171875 -0.25,1.046875 -0.28125,1.125 0,0 -0.3125,0.609375 -0.84375,0.609375 -0.484375,0 -0.484375,-0.453125 -0.484375,-0.578125 0,-0.375 0.15625,-0.8125 0.375,-1.359375 C 1.96875,-2.28125 2,-2.359375 2,-2.484375 2,-2.8125 1.71875,-3.078125 1.34375,-3.078125 0.640625,-3.078125 0.328125,-2.125 0.328125,-2 c 0,0.078125 0.09375,0.078125 0.125,0.078125 0.09375,0 0.09375,-0.03125 0.125,-0.109375 C 0.75,-2.609375 1.046875,-2.875 1.328125,-2.875 1.4375,-2.875 1.5,-2.796875 1.5,-2.640625 c 0,0.171875 -0.0625,0.3125 -0.09375,0.40625 C 1.0625,-1.375 1,-1.125 1,-0.8125 1,-0.703125 1,-0.375 1.265625,-0.140625 1.484375,0.03125 1.78125,0.0625 1.96875,0.0625 2.25,0.0625 2.5,-0.03125 2.71875,-0.25 2.640625,0.140625 2.5625,0.4375 2.265625,0.78125 2.078125,1 1.796875,1.21875 1.421875,1.21875 c -0.046875,0 -0.375,0 -0.515625,-0.21875 0.375,-0.046875 0.375,-0.375 0.375,-0.390625 0,-0.21875 -0.203125,-0.265625 -0.265625,-0.265625 -0.171875,0 -0.40625,0.140625 -0.40625,0.46875 0,0.34375 0.328125,0.609375 0.828125,0.609375 C 2.140625,1.421875 3,0.875 3.21875,0 Z m 0,0"
               id="id-d22ebb86-9bbb-419f-8106-e32a3d06d33b" />
          </g>
        </g>
        <g
           style="fill:#996600;fill-opacity:1"
           id="id-ba37a6e1-d2dc-492a-85b7-e0da6470a088">
          <g
             transform="translate(159.323,134.765)"
             id="g8772"
             style="fill:#996600">
            <path
               style="fill:#996600;stroke:none;stroke-width:0"
               d="M 5.953125,-5.671875 6.09375,-5.8125 C 6.390625,-6.109375 6.71875,-6.453125 7.390625,-6.5 7.5,-6.515625 7.59375,-6.515625 7.59375,-6.6875 c 0,-0.078125 -0.046875,-0.125 -0.125,-0.125 -0.265625,0 -0.546875,0.03125 -0.8125,0.03125 -0.34375,0 -0.6875,-0.03125 -1,-0.03125 -0.0625,0 -0.1875,0 -0.1875,0.1875 0,0.109375 0.09375,0.125 0.140625,0.125 0.078125,0 0.359375,0.015625 0.359375,0.234375 0,0.171875 -0.234375,0.421875 -0.265625,0.46875 L 3.390625,-3.125 2.296875,-6.09375 C 2.234375,-6.234375 2.234375,-6.25 2.234375,-6.265625 2.234375,-6.5 2.71875,-6.5 2.828125,-6.5 c 0.125,0 0.234375,0 0.234375,-0.203125 0,-0.109375 -0.125,-0.109375 -0.15625,-0.109375 -0.28125,0 -0.96875,0.03125 -1.25,0.03125 -0.25,0 -0.875,-0.03125 -1.125,-0.03125 -0.046875,0 -0.1875,0 -0.1875,0.203125 C 0.34375,-6.5 0.453125,-6.5 0.578125,-6.5 c 0.59375,0 0.640625,0.09375 0.734375,0.34375 L 2.53125,-2.875 c 0.015625,0.03125 0.046875,0.140625 0.046875,0.15625 0,0.03125 -0.40625,1.640625 -0.453125,1.828125 C 2,-0.34375 1.984375,-0.3125 1.1875,-0.3125 c -0.1875,0 -0.265625,0 -0.265625,0.203125 C 0.921875,0 1.03125,0 1.0625,0 c 0.265625,0 0.96875,-0.03125 1.25,-0.03125 0.28125,0 1,0.03125 1.28125,0.03125 0.0625,0 0.1875,0 0.1875,-0.203125 C 3.78125,-0.3125 3.6875,-0.3125 3.5,-0.3125 c -0.015625,0 -0.203125,0 -0.375,-0.015625 C 2.90625,-0.34375 2.84375,-0.375 2.84375,-0.484375 c 0,-0.078125 0.09375,-0.421875 0.140625,-0.625 l 0.359375,-1.40625 c 0.046875,-0.203125 0.0625,-0.21875 0.140625,-0.3125 z m 0,0"
               id="id-415ca4d3-46aa-46f7-a550-264df34692fa" />
          </g>
        </g>
      </g>
    </g>
    <path
       style="display:inline;fill:#000000;fill-opacity:1;stroke:none;stroke-width:0"
       d="m 163.63948,86.52239 0.24953,-0.24953 c 0.52678,-0.526788 1.10902,-1.136752 2.30123,-1.219929 0.19408,-0.02773 0.36043,-0.02773 0.36043,-0.332708 0,-0.138628 -0.0832,-0.221805 -0.22181,-0.221805 -0.47133,0 -0.97039,0.05545 -1.44173,0.05545 -0.60996,0 -1.21993,-0.05545 -1.77444,-0.05545 -0.1109,0 -0.33271,0 -0.33271,0.332708 0,0.194079 0.16636,0.221805 0.24953,0.221805 0.13863,0 0.63769,0.02773 0.63769,0.415885 0,0.304982 -0.41588,0.748592 -0.47133,0.831769 l -4.1034,4.741086 -1.94079,-5.267873 c -0.11091,-0.249531 -0.11091,-0.277257 -0.11091,-0.304982 0,-0.415885 0.8595,-0.415885 1.05358,-0.415885 0.2218,0 0.41588,0 0.41588,-0.360433 0,-0.19408 -0.2218,-0.19408 -0.27725,-0.19408 -0.49907,0 -1.71899,0.05545 -2.21806,0.05545 -0.44361,0 -1.55263,-0.05545 -1.99624,-0.05545 -0.0832,0 -0.33271,0 -0.33271,0.360434 0,0.194079 0.19408,0.194079 0.41588,0.194079 1.05358,0 1.13676,0.166354 1.30311,0.609964 l 2.1626,5.822386 c 0.0277,0.05545 0.0832,0.249531 0.0832,0.277257 0,0.05545 -0.72087,2.911193 -0.80405,3.2439 -0.2218,0.970398 -0.24953,1.025849 -1.66354,1.025849 -0.3327,0 -0.47133,0 -0.47133,0.360434 0,0.194079 0.19408,0.194079 0.24953,0.194079 0.47134,0 1.71899,-0.05545 2.21805,-0.05545 0.49906,0 1.77444,0.05545 2.2735,0.05545 0.11091,0 0.33271,0 0.33271,-0.360433 0,-0.19408 -0.16635,-0.19408 -0.49906,-0.19408 -0.0277,0 -0.36043,0 -0.66542,-0.02772 -0.38815,-0.02773 -0.49906,-0.08318 -0.49906,-0.277257 0,-0.138628 0.16636,-0.748592 0.24953,-1.109026 l 0.63769,-2.495308 c 0.0832,-0.360433 0.11091,-0.388159 0.24953,-0.554513 z m 0,0"
       id="path9090" />
    <g
       id="g8132"
       transform="translate(42.448247,7.7735861)"
       style="display:inline">
      <rect
         style="display:inline;opacity:0.9813;fill:none;fill-opacity:1;stroke:#996600;stroke-width:0.2;stroke-dasharray:none;stroke-dashoffset:0;stroke-opacity:1"
         id="rect8123"
         width="15.678805"
         height="15.678805"
         x="22.473154"
         y="120.6457" />
      <circle
         style="display:inline;fill:#996600;fill-opacity:1;stroke:#996600;stroke-width:0.499999"
         id="circle8134"
         cx="30.312557"
         cy="128.48509"
         r="1.129926" />
      <path
         style="opacity:0.9813;fill:none;fill-opacity:1;stroke:#996600;stroke-width:0.5;stroke-dasharray:none;stroke-dashoffset:0;stroke-opacity:1"
         d="m 30.312557,122.26307 v 12.44405"
         id="path8125" />
      <path
         style="opacity:0.9813;fill:none;fill-opacity:1;stroke:#996600;stroke-width:0.5;stroke-dasharray:0.5, 0.5;stroke-dashoffset:0;stroke-opacity:1"
         d="M 36.534582,128.4851 H 24.090532"
         id="path8127" />
    </g>
    <g
       id="g9080">
      <path
         style="opacity:1;fill:none;fill-opacity:1;stroke:#000000;stroke-width:0.446884;stroke-dasharray:none;stroke-opacity:1;marker-start:url(#TriangleStart)"
         d="M 73.260801,218.61196 V 188.58381"
         id="path8365" />
      <g
         transform="matrix(2.3071235,0,0,2.3071235,57.231289,197.83818)"
         ns1:version="1.8.2"
         ns1:texconverter="pdflatex"
         ns1:pdfconverter="inkscape"
         ns1:text="$\\pi$"
         ns1:preamble="/home/fox/.config/inkscape/extensions/textext/default_packages.tex"
         ns1:scale="1.0"
         ns1:alignment="middle center"
         ns1:stroke-to-path="0"
         ns1:inkscapeversion="1.2.2"
         ns1:jacobian_sqrt="0.352778"
         id="g8909">
        <defs
           id="id-5a98485d-8f42-498d-a4a5-77f723ff3cbb" />
        <g
           id="id-17c02fe4-d1b3-49f8-9283-344c84f7694c"
           transform="translate(-148.978,-130.468)">
          <g
             style="fill:#000000;fill-opacity:1"
             id="id-25796bfc-90d2-4899-a6df-16da5e49ada8">
            <g
               transform="translate(148.712,134.765)"
               id="g8905">
              <path
                 style="stroke:none;stroke-width:0"
                 d="m 2.640625,-3.71875 h 1.125 C 3.4375,-2.25 3.34375,-1.8125 3.34375,-1.140625 c 0,0.140625 0,0.40625 0.078125,0.75 0.109375,0.4375 0.21875,0.5 0.359375,0.5 0.203125,0 0.421875,-0.171875 0.421875,-0.375 0,-0.0625 0,-0.078125 -0.0625,-0.21875 -0.296875,-0.71875 -0.296875,-1.375 -0.296875,-1.65625 0,-0.515625 0.078125,-1.0625 0.1875,-1.578125 h 1.125 c 0.140625,0 0.5,0 0.5,-0.34375 0,-0.234375 -0.21875,-0.234375 -0.40625,-0.234375 H 1.90625 c -0.21875,0 -0.59375,0 -1.03125,0.46875 -0.34375,0.390625 -0.609375,0.84375 -0.609375,0.890625 0,0.015625 0,0.109375 0.125,0.109375 0.078125,0 0.09375,-0.046875 0.15625,-0.125 C 1.03125,-3.71875 1.609375,-3.71875 1.8125,-3.71875 H 2.375 C 2.0625,-2.515625 1.53125,-1.3125 1.109375,-0.40625 1.03125,-0.25 1.03125,-0.234375 1.03125,-0.15625 c 0,0.1875 0.15625,0.265625 0.28125,0.265625 0.296875,0 0.375,-0.28125 0.5,-0.640625 C 1.953125,-1 1.953125,-1.015625 2.078125,-1.515625 Z m 0,0"
                 id="id-aff34868-f7b8-4c0d-98e1-e71cfe84ecfe" />
            </g>
          </g>
        </g>
      </g>
    </g>
  </g>
  <g
     id="layer2"
     style="display:inline"
     transform="translate(-37.827798,-84.498418)">
    <path
       id="path9988"
       style="display:none;opacity:1;mix-blend-mode:normal;fill:none;fill-opacity:1;stroke:#000000;stroke-width:0.499999;stroke-opacity:1"
       d="m 74.043447,120.71395 c -6.40167,-1.68253 -13.75802,-4.22407 -22.27666,-7.82268 v 64.00982 c 8.51864,3.59861 15.87499,6.14015 22.27666,7.82268 57.636623,15.14842 37.885793,-39.33625 92.257223,-18.92183 v -64.00982 c -54.37143,-20.414425 -34.6206,34.07025 -92.257223,18.92183 z"
       clip-path="none" />
    <path
       style="display:inline;opacity:1;fill:none;fill-opacity:1;stroke:#9966ff;stroke-width:0.8;stroke-dasharray:none;stroke-opacity:1"
       d="m 51.864074,218.94081 c 8.518636,3.59861 15.874989,6.14015 22.276657,7.82268 57.636629,15.14842 37.885799,-39.33625 92.257229,-18.92183"
       id="path22015" />
    <g
       transform="matrix(1.7464683,0,0,1.7464683,150.43095,213.42948)"
       ns1:version="1.8.2"
       ns1:texconverter="pdflatex"
       ns1:pdfconverter="inkscape"
       ns1:text="$X$"
       ns1:preamble="/home/fox/.config/inkscape/extensions/textext/default_packages.tex"
       ns1:scale="1.0"
       ns1:alignment="middle center"
       ns1:stroke-to-path="0"
       ns1:inkscapeversion="1.2.2"
       ns1:jacobian_sqrt="0.352778"
       id="g23405"
       style="display:inline;fill:#9966ff;stroke:#9966ff">
      <defs
         id="defs23393" />
      <rect
         style="display:none;opacity:1;fill:none;fill-opacity:1;stroke:none;stroke-width:0.587989;stroke-dasharray:0.587989, 0.587989;stroke-dashoffset:0;stroke-opacity:1"
         id="rect23395"
         width="14.600576"
         height="13.349667"
         x="150.3069"
         y="144.86917"
         transform="matrix(0.57258412,0,0,0.57258412,-86.134372,-83.365939)" />
      <g
         id="g23403"
         transform="translate(-148.978,-127.953)"
         style="fill:#9966ff;stroke:#9966ff">
        <g
           style="fill:#9966ff;fill-opacity:1;stroke:#9966ff"
           id="g23401">
          <g
             transform="translate(148.712,134.765)"
             id="g23399"
             style="fill:#9966ff;stroke:#9966ff">
            <path
               style="fill:#9966ff;stroke:#9966ff;stroke-width:0"
               d="M 4.828125,-4.09375 4,-6.078125 c -0.03125,-0.078125 -0.046875,-0.125 -0.046875,-0.125 0,-0.0625 0.15625,-0.25 0.578125,-0.296875 0.109375,-0.015625 0.203125,-0.015625 0.203125,-0.1875 0,-0.125 -0.125,-0.125 -0.15625,-0.125 -0.40625,0 -0.828125,0.03125 -1.25,0.03125 -0.25,0 -0.859375,-0.03125 -1.109375,-0.03125 -0.0625,0 -0.1875,0 -0.1875,0.203125 C 2.03125,-6.5 2.140625,-6.5 2.265625,-6.5 c 0.59375,0 0.65625,0.09375 0.75,0.3125 l 1.171875,2.78125 -2.109375,2.265625 -0.125,0.109375 C 1.46875,-0.5 1,-0.34375 0.484375,-0.3125 c -0.125,0.015625 -0.21875,0.015625 -0.21875,0.203125 0,0.015625 0,0.109375 0.140625,0.109375 0.296875,0 0.625,-0.03125 0.921875,-0.03125 C 1.703125,-0.03125 2.09375,0 2.453125,0 2.515625,0 2.625,0 2.625,-0.203125 2.625,-0.296875 2.53125,-0.3125 2.515625,-0.3125 c -0.09375,0 -0.40625,-0.03125 -0.40625,-0.3125 0,-0.15625 0.15625,-0.3125 0.265625,-0.4375 L 3.40625,-2.140625 4.296875,-3.125 l 1,2.390625 c 0.046875,0.109375 0.0625,0.109375 0.0625,0.140625 0,0.078125 -0.203125,0.25 -0.578125,0.28125 C 4.671875,-0.296875 4.578125,-0.296875 4.578125,-0.125 4.578125,0 4.6875,0 4.71875,0 5,0 5.703125,-0.03125 5.984375,-0.03125 6.234375,-0.03125 6.84375,0 7.09375,0 c 0.0625,0 0.1875,0 0.1875,-0.1875 0,-0.125 -0.109375,-0.125 -0.1875,-0.125 -0.65625,0 -0.6875,-0.03125 -0.859375,-0.4375 C 5.859375,-1.671875 5.1875,-3.234375 4.953125,-3.828125 5.625,-4.53125 6.671875,-5.71875 7,-5.984375 7.28125,-6.234375 7.671875,-6.46875 8.265625,-6.5 c 0.125,-0.015625 0.21875,-0.015625 0.21875,-0.203125 0,0 0,-0.109375 -0.125,-0.109375 -0.296875,0 -0.640625,0.03125 -0.9375,0.03125 -0.375,0 -0.75,-0.03125 -1.109375,-0.03125 -0.0625,0 -0.1875,0 -0.1875,0.203125 0,0.0625 0.046875,0.09375 0.109375,0.109375 0.09375,0.015625 0.40625,0.03125 0.40625,0.3125 0,0.140625 -0.109375,0.265625 -0.1875,0.359375 z m 0,0"
               id="path23397" />
          </g>
        </g>
      </g>
    </g>
    <path
       style="display:inline;fill:#000000;fill-opacity:1;stroke:none;stroke-width:0"
       d="m 163.63948,86.52239 0.24953,-0.24953 c 0.52678,-0.526788 1.10902,-1.136752 2.30123,-1.219929 0.19408,-0.02773 0.36043,-0.02773 0.36043,-0.332708 0,-0.138628 -0.0832,-0.221805 -0.22181,-0.221805 -0.47133,0 -0.97039,0.05545 -1.44173,0.05545 -0.60996,0 -1.21993,-0.05545 -1.77444,-0.05545 -0.1109,0 -0.33271,0 -0.33271,0.332708 0,0.194079 0.16636,0.221805 0.24953,0.221805 0.13863,0 0.63769,0.02773 0.63769,0.415885 0,0.304982 -0.41588,0.748592 -0.47133,0.831769 l -4.1034,4.741086 -1.94079,-5.267873 c -0.11091,-0.249531 -0.11091,-0.277257 -0.11091,-0.304982 0,-0.415885 0.8595,-0.415885 1.05358,-0.415885 0.2218,0 0.41588,0 0.41588,-0.360433 0,-0.19408 -0.2218,-0.19408 -0.27725,-0.19408 -0.49907,0 -1.71899,0.05545 -2.21806,0.05545 -0.44361,0 -1.55263,-0.05545 -1.99624,-0.05545 -0.0832,0 -0.33271,0 -0.33271,0.360434 0,0.194079 0.19408,0.194079 0.41588,0.194079 1.05358,0 1.13676,0.166354 1.30311,0.609964 l 2.1626,5.822386 c 0.0277,0.05545 0.0832,0.249531 0.0832,0.277257 0,0.05545 -0.72087,2.911193 -0.80405,3.2439 -0.2218,0.970398 -0.24953,1.025849 -1.66354,1.025849 -0.3327,0 -0.47133,0 -0.47133,0.360434 0,0.194079 0.19408,0.194079 0.24953,0.194079 0.47134,0 1.71899,-0.05545 2.21805,-0.05545 0.49906,0 1.77444,0.05545 2.2735,0.05545 0.11091,0 0.33271,0 0.33271,-0.360433 0,-0.19408 -0.16635,-0.19408 -0.49906,-0.19408 -0.0277,0 -0.36043,0 -0.66542,-0.02772 -0.38815,-0.02773 -0.49906,-0.08318 -0.49906,-0.277257 0,-0.138628 0.16636,-0.748592 0.24953,-1.109026 l 0.63769,-2.495308 c 0.0832,-0.360433 0.11091,-0.388159 0.24953,-0.554513 z m 0,0"
       id="path23419" />
    <path
       style="display:inline;fill:none;stroke:#cc0066;stroke-width:0.499999;stroke-opacity:1;marker-end:url(#TriangleStart)"
       d="m 73.075668,226.50013 22.192265,5.48744"
       id="path22978" />
    <path
       style="display:inline;fill:none;stroke:#cc0066;stroke-width:0.499999;stroke-opacity:1;marker-end:url(#TriangleStart)"
       d="m 106.60102,226.77225 20.17154,-8.60787"
       id="path22020" />
    <path
       style="display:inline;fill:none;stroke:#cc0066;stroke-width:0.499999;stroke-opacity:1;marker-end:url(#TriangleStart)"
       d="m 127.74347,209.45063 17.65171,-12.92202"
       id="path22022" />
    <path
       style="display:inline;fill:none;stroke:#cc0066;stroke-width:0.499999;stroke-opacity:1;marker-end:url(#TriangleStart)"
       d="m 145.51521,202.95055 21.70371,1.95124"
       id="path22990" />
    <circle
       style="display:inline;fill:#000000;fill-opacity:1;stroke:#000000;stroke-width:0.499999"
       id="circle22026"
       cx="73.010803"
       cy="226.76349"
       r="1.129926" />
    <circle
       style="display:inline;fill:#000000;fill-opacity:1;stroke:#000000;stroke-width:0.499999"
       id="circle22028"
       cx="106.75545"
       cy="226.70634"
       r="1.129926" />
    <circle
       style="display:inline;fill:#000000;fill-opacity:1;stroke:#000000;stroke-width:0.499999"
       id="circle22030"
       cx="127.83428"
       cy="209.38416"
       r="1.129926" />
    <circle
       style="display:inline;fill:#000000;fill-opacity:1;stroke:#000000;stroke-width:0.499999"
       id="circle22032"
       cx="145.54285"
       cy="202.95303"
       r="1.129926" />
    <path
       style="display:none;opacity:1;fill:none;fill-opacity:1;stroke:#000000;stroke-width:0.5;stroke-dasharray:none;stroke-opacity:1"
       d="m 51.864074,163.24962 c 8.518636,3.59861 25.415735,-0.58898 31.817403,1.09355 57.636633,15.14842 28.345053,-32.60712 82.716483,-12.1927"
       id="path10638" />
    <path
       style="display:none;opacity:1;fill:none;fill-opacity:1;stroke:#000000;stroke-width:0.5;stroke-dasharray:none;stroke-opacity:1"
       d="m 51.864074,147.85166 c 8.518636,3.59861 6.018708,8.246 22.276657,7.82268 59.573899,-1.55118 37.885799,-39.33625 92.257229,-18.92183"
       id="path10641" />
    <path
       style="display:none;opacity:1;fill:none;fill-opacity:1;stroke:#000000;stroke-width:0.5;stroke-dasharray:none;stroke-opacity:1"
       d="m 51.864074,128.28391 c 8.518636,3.59861 15.658529,7.71024 22.276657,7.82268 46.280919,0.78629 41.647769,-27.2585 70.701579,-24.51466 5.68447,0.53684 12.65847,2.25228 21.55565,5.59283"
       id="path10643" />
    <g
       id="g22100">
      <path
         style="display:inline;opacity:1;mix-blend-mode:normal;fill:none;fill-opacity:1;stroke:#000000;stroke-width:0.499999;stroke-opacity:1"
         d="m 51.766787,176.90109 c 8.51864,3.59861 15.87499,6.14015 22.27666,7.82268 57.636633,15.14842 37.885803,-39.33625 92.257233,-18.92183"
         id="path14367" />
      <path
         style="display:inline;opacity:1;mix-blend-mode:normal;fill:none;fill-opacity:1;stroke:#000000;stroke-width:0.499999;stroke-opacity:1"
         d="m 51.766787,112.89127 c 8.51864,3.59861 15.87499,6.14015 22.27666,7.82268 57.636633,15.14842 37.885803,-39.336254 92.257233,-18.92183"
         id="path21666" />
      <path
         style="display:inline;opacity:1;mix-blend-mode:normal;fill:none;fill-opacity:1;stroke:#000000;stroke-width:0.499999;stroke-opacity:1"
         d="M 166.30068,165.80194 V 101.79212"
         id="path14369"
         clip-path="url(#clipPath25451)" />
      <path
         style="display:inline;opacity:1;mix-blend-mode:normal;fill:none;fill-opacity:1;stroke:#000000;stroke-width:0.499999;stroke-opacity:1"
         d="m 51.766787,112.89127 v 64.00982"
         id="path14355"
         clip-path="url(#clipPath25447)" />
    </g>
    <path
       style="display:inline;fill:#000000;fill-opacity:1;stroke:none;stroke-width:0"
       d="m 163.63948,86.52239 0.24953,-0.24953 c 0.52678,-0.526788 1.10902,-1.136752 2.30123,-1.219929 0.19408,-0.02773 0.36043,-0.02773 0.36043,-0.332708 0,-0.138628 -0.0832,-0.221805 -0.22181,-0.221805 -0.47133,0 -0.97039,0.05545 -1.44173,0.05545 -0.60996,0 -1.21993,-0.05545 -1.77444,-0.05545 -0.1109,0 -0.33271,0 -0.33271,0.332708 0,0.194079 0.16636,0.221805 0.24953,0.221805 0.13863,0 0.63769,0.02773 0.63769,0.415885 0,0.304982 -0.41588,0.748592 -0.47133,0.831769 l -4.1034,4.741086 -1.94079,-5.267873 c -0.11091,-0.249531 -0.11091,-0.277257 -0.11091,-0.304982 0,-0.415885 0.8595,-0.415885 1.05358,-0.415885 0.2218,0 0.41588,0 0.41588,-0.360433 0,-0.19408 -0.2218,-0.19408 -0.27725,-0.19408 -0.49907,0 -1.71899,0.05545 -2.21806,0.05545 -0.44361,0 -1.55263,-0.05545 -1.99624,-0.05545 -0.0832,0 -0.33271,0 -0.33271,0.360434 0,0.194079 0.19408,0.194079 0.41588,0.194079 1.05358,0 1.13676,0.166354 1.30311,0.609964 l 2.1626,5.822386 c 0.0277,0.05545 0.0832,0.249531 0.0832,0.277257 0,0.05545 -0.72087,2.911193 -0.80405,3.2439 -0.2218,0.970398 -0.24953,1.025849 -1.66354,1.025849 -0.3327,0 -0.47133,0 -0.47133,0.360434 0,0.194079 0.19408,0.194079 0.24953,0.194079 0.47134,0 1.71899,-0.05545 2.21805,-0.05545 0.49906,0 1.77444,0.05545 2.2735,0.05545 0.11091,0 0.33271,0 0.33271,-0.360433 0,-0.19408 -0.16635,-0.19408 -0.49906,-0.19408 -0.0277,0 -0.36043,0 -0.66542,-0.02772 -0.38815,-0.02773 -0.49906,-0.08318 -0.49906,-0.277257 0,-0.138628 0.16636,-0.748592 0.24953,-1.109026 l 0.63769,-2.495308 c 0.0832,-0.360433 0.11091,-0.388159 0.24953,-0.554513 z m 0,0"
       id="path10510" />
    <g
       id="g20622"
       style="opacity:1"
       clip-path="url(#clipPath25443)">
      <path
         d="m 51.7668,176.901 c 8.5186,3.599 15.875,6.14 22.2766,7.823 3.1872,0.837 6.1378,1.462 8.8773,1.898 46.8013,7.453 32.0153,-40.106 83.3803,-20.82"
         style="display:none;opacity:1;mix-blend-mode:normal;fill:none;fill-opacity:1;stroke:#000000;stroke-width:0.499999;stroke-opacity:1"
         id="path20610" />
      <path
         d="m 51.7862,174.171 c 7.9679,3.366 15.7732,5.173 22.4124,6.426 3.2749,0.626 6.2687,1.112 8.8743,1.57 48.9691,8.992 31.2811,-38.607 83.2471,-19.095"
         style="display:inline;opacity:1;mix-blend-mode:normal;fill:none;fill-opacity:1;stroke:#000000;stroke-width:0.499999;stroke-opacity:1"
         id="path20612" />
      <path
         d="m 51.8057,171.441 c 7.417,3.133 15.6713,4.206 22.548,5.029 3.3627,0.414 6.3997,0.761 8.8713,1.241 51.136,10.531 30.547,-37.107 83.115,-17.37"
         style="display:inline;opacity:1;mix-blend-mode:normal;fill:none;fill-opacity:1;stroke:#000000;stroke-width:0.499999;stroke-opacity:1"
         id="path20614" />
      <path
         d="m 51.8252,168.71 c 6.8661,2.901 15.5694,3.239 22.6837,3.634 3.4504,0.202 6.5306,0.41 8.8683,0.911 53.3028,12.07 29.8128,-35.607 82.9818,-15.644"
         style="display:inline;opacity:1;mix-blend-mode:normal;fill:none;fill-opacity:1;stroke:#000000;stroke-width:0.499999;stroke-opacity:1"
         id="path20616" />
      <path
         d="m 51.8446,165.98 c 6.3154,2.668 15.4676,2.272 22.8194,2.237 3.5382,-0.01 6.6617,0.06 8.8653,0.582 55.4697,13.609 29.0787,-34.107 82.8497,-13.918"
         style="display:inline;opacity:1;mix-blend-mode:normal;fill:none;fill-opacity:1;stroke:#000000;stroke-width:0.499999;stroke-opacity:1"
         id="path20618" />
      <path
         d="m 51.8641,163.25 c 5.7645,2.435 15.3657,1.305 22.955,0.84 3.626,-0.221 6.7927,-0.291 8.8624,0.253 57.6365,15.149 28.3455,-32.607 82.7165,-12.193"
         style="display:inline;opacity:1;mix-blend-mode:normal;fill:none;fill-opacity:1;stroke:#000000;stroke-width:0.499999;stroke-opacity:1"
         id="path20620" />
    </g>
    <g
       id="g20940"
       style="opacity:1"
       clip-path="url(#clipPath25439)">
      <path
         d="m 51.8641,163.25 c 6.0026,2.535 16.1655,1.205 23.8849,0.787 3.2355,-0.176 6.0417,-0.191 7.9325,0.306 57.6365,15.149 28.3455,-32.607 82.7165,-12.193"
         style="display:inline;opacity:1;fill:none;fill-opacity:1;stroke:#000000;stroke-width:0.5;stroke-dasharray:none;stroke-opacity:1"
         id="path20928" />
      <path
         d="m 51.8641,160.17 c 6.5058,2.748 14.1361,2.614 23.5632,2.194 3.1605,-0.155 5.9401,-0.199 7.9533,0.153 56.0354,11.202 29.1684,-33.665 83.0174,-13.446"
         style="display:inline;opacity:1;fill:none;fill-opacity:1;stroke:#000000;stroke-width:0.5;stroke-dasharray:none;stroke-opacity:1"
         id="path20930" />
      <path
         d="m 51.8641,157.09 c 7.009,2.961 12.1068,4.022 23.2416,3.602 3.0854,-0.135 5.8383,-0.208 7.974,-0.002 54.4343,7.257 29.9913,-34.721 83.3183,-14.699"
         style="display:inline;opacity:1;fill:none;fill-opacity:1;stroke:#000000;stroke-width:0.5;stroke-dasharray:none;stroke-opacity:1"
         id="path20932" />
      <path
         d="m 51.8641,154.011 c 7.5122,3.173 10.0774,5.43 22.9199,5.008 3.0104,-0.115 5.7366,-0.215 7.9947,-0.155 52.8333,3.31 30.8143,-35.779 83.6193,-15.952"
         style="display:inline;opacity:1;fill:none;fill-opacity:1;stroke:#000000;stroke-width:0.5;stroke-dasharray:none;stroke-opacity:1"
         id="path20934" />
      <path
         d="m 51.8641,150.931 c 8.0154,3.386 8.048,6.838 22.5983,6.416 2.9353,-0.095 5.6349,-0.224 8.0154,-0.31 51.2322,-0.635 31.6372,-36.835 83.9202,-17.205"
         style="display:inline;opacity:1;fill:none;fill-opacity:1;stroke:#000000;stroke-width:0.5;stroke-dasharray:none;stroke-opacity:1"
         id="path20936" />
      <path
         d="m 51.8641,147.852 c 8.5186,3.598 6.0187,8.246 22.2766,7.822 2.8603,-0.074 5.5332,-0.232 8.0362,-0.463 49.6301,-4.582 32.4601,-37.893 84.2211,-18.458"
         style="display:inline;opacity:1;fill:none;fill-opacity:1;stroke:#000000;stroke-width:0.5;stroke-dasharray:none;stroke-opacity:1"
         id="path20938" />
    </g>
    <g
       id="g21272"
       style="display:inline;opacity:1"
       clip-path="url(#clipPath25435)">
      <path
         d="m 51.8641,147.852 c 8.4349,3.563 6.0667,8.154 21.8028,7.833 0.1561,-0.003 0.3141,-0.007 0.4738,-0.011 49.6193,-1.292 42.8653,-27.72 70.6383,-24.721 5.572,0.602 12.534,2.388 21.619,5.8"
         style="display:inline;opacity:1;fill:none;fill-opacity:1;stroke:#000000;stroke-width:0.5;stroke-dasharray:none;stroke-opacity:1"
         id="path21260" />
      <path
         d="m 51.8641,143.938 c 8.4516,3.57 7.9851,8.066 21.8975,7.832 0.1565,-0.002 0.3142,-0.005 0.4733,-0.008 48.8511,-0.916 42.5471,-27.627 70.5571,-24.681 5.594,0.589 12.558,2.361 21.606,5.758"
         style="display:inline;opacity:1;fill:none;fill-opacity:1;stroke:#000000;stroke-width:0.5;stroke-dasharray:none;stroke-opacity:1"
         id="path21262" />
      <path
         d="m 51.8641,140.025 c 8.4684,3.577 9.9035,7.977 21.9923,7.829 0.1567,-0.001 0.3142,-0.002 0.4726,-0.004 48.083,-0.54 42.229,-27.535 70.475,-24.641 5.617,0.576 12.584,2.333 21.594,5.716"
         style="display:inline;opacity:1;fill:none;fill-opacity:1;stroke:#000000;stroke-width:0.5;stroke-dasharray:none;stroke-opacity:1"
         id="path21264" />
      <path
         d="m 51.8641,136.111 c 8.4851,3.584 11.8218,7.888 22.0871,7.827 0.1569,0 0.3142,0 0.4719,0 47.3149,-0.164 41.9119,-27.442 70.3939,-24.601 5.639,0.562 12.608,2.306 21.581,5.675"
         style="display:inline;opacity:1;fill:none;fill-opacity:1;stroke:#000000;stroke-width:0.5;stroke-dasharray:none;stroke-opacity:1"
         id="path21266" />
      <path
         d="m 51.8641,132.197 c 8.5019,3.592 13.7402,7.8 22.1819,7.825 0.1572,0.002 0.3143,0.003 0.4713,0.004 46.5467,0.212 41.5937,-27.349 70.3127,-24.562 5.662,0.55 12.633,2.28 21.568,5.634"
         style="display:inline;opacity:1;fill:none;fill-opacity:1;stroke:#000000;stroke-width:0.5;stroke-dasharray:none;stroke-opacity:1"
         id="path21268" />
      <path
         d="m 51.8641,128.284 c 8.5186,3.599 15.6585,7.71 22.2766,7.823 0.1575,0.002 0.3144,0.005 0.4707,0.007 45.7796,0.588 41.2756,-27.257 70.2306,-24.522 5.685,0.537 12.659,2.252 21.556,5.593"
         style="display:inline;opacity:1;fill:none;fill-opacity:1;stroke:#000000;stroke-width:0.5;stroke-dasharray:none;stroke-opacity:1"
         id="path21270" />
    </g>
    <g
       id="g21985"
       style="opacity:1"
       clip-path="url(#clipPath25431)">
      <path
         d="m 51.8641,128.284 c 8.3184,3.514 15.3222,7.517 21.8092,7.808 0.1561,0.007 0.3119,0.012 0.4674,0.015 46.2813,0.786 41.6473,-27.259 70.7013,-24.515 5.685,0.537 12.659,2.252 21.556,5.593"
         style="display:inline;opacity:1;fill:none;fill-opacity:1;stroke:#000000;stroke-width:0.5;stroke-dasharray:none;stroke-opacity:1"
         id="path21973" />
      <path
         d="m 51.8446,125.205 c 8.3585,3.531 15.4328,7.242 21.9027,7.811 0.1556,0.014 0.3108,0.026 0.4657,0.036 46.494,3.075 41.717,-26.397 70.512,-24.346 5.688,0.4 12.688,2.034 21.654,5.4"
         style="display:inline;opacity:1;fill:none;fill-opacity:1;stroke:#000000;stroke-width:0.5;stroke-dasharray:none;stroke-opacity:1"
         id="path21975" />
      <path
         d="m 51.8252,122.127 c 8.3985,3.548 15.5433,6.966 21.9962,7.814 0.155,0.02 0.3097,0.039 0.4639,0.056 46.7077,5.363 41.7867,-25.535 70.3227,-24.176 5.692,0.263 12.716,1.815 21.751,5.207"
         style="display:inline;opacity:1;fill:none;fill-opacity:1;stroke:#000000;stroke-width:0.5;stroke-dasharray:none;stroke-opacity:1"
         id="path21977" />
      <path
         d="m 51.8057,119.048 c 8.4386,3.565 15.6539,6.691 22.0897,7.817 0.1545,0.027 0.3086,0.053 0.4622,0.078 46.9204,7.651 41.8554,-24.673 70.1344,-24.008 5.695,0.126 12.744,1.596 21.848,5.014"
         style="display:inline;opacity:1;fill:none;fill-opacity:1;stroke:#000000;stroke-width:0.5;stroke-dasharray:none;stroke-opacity:1"
         id="path21979" />
      <path
         d="m 51.7862,115.97 c 8.4786,3.581 15.7645,6.415 22.1832,7.82 0.154,0.033 0.3075,0.066 0.4605,0.098 47.1341,9.939 41.9251,-23.811 69.9451,-23.838 5.698,-0.011 12.773,1.377 21.945,4.821"
         style="display:inline;opacity:1;fill:none;fill-opacity:1;stroke:#000000;stroke-width:0.5;stroke-dasharray:none;stroke-opacity:1"
         id="path21981" />
      <path
         d="m 51.7668,112.891 c 8.5186,3.599 15.875,6.14 22.2766,7.823 0.1535,0.04 0.3064,0.08 0.4588,0.119 47.3478,12.228 41.9948,-22.9489 69.7558,-23.6687 5.702,-0.1478 12.802,1.1583 22.043,4.6277"
         style="display:none;opacity:1;fill:none;fill-opacity:1;stroke:#000000;stroke-width:0.5;stroke-dasharray:none;stroke-opacity:1"
         id="path21983" />
    </g>
    <path
       style="display:inline;fill:#000000;fill-opacity:1;stroke:#000000;stroke-width:0.7;stroke-dasharray:none;stroke-opacity:1"
       xlink:href="#circle3631"
       id="path3859"
       d="m 145.54297,109.91602 c -0.35912,-3e-4 -0.71677,0.14645 -0.9707,0.40039 -0.25394,0.25393 -0.40069,0.61158 -0.40039,0.9707 3.2e-4,0.35872 0.14846,0.71531 0.40234,0.96875 0.25387,0.25344 0.61003,0.40069 0.96875,0.40039 0.35833,-3.2e-4 0.71537,-0.14701 0.96875,-0.40039 0.25338,-0.25338 0.40007,-0.61042 0.40039,-0.96875 3e-4,-0.35872 -0.14695,-0.71488 -0.40039,-0.96875 -0.25344,-0.25387 -0.61003,-0.40202 -0.96875,-0.40234 z m -17.70899,3.24023 c -0.35832,3.3e-4 -0.71537,0.14701 -0.96875,0.40039 -0.25337,0.25338 -0.40006,0.61042 -0.40039,0.96875 -2.9e-4,0.35872 0.14696,0.71488 0.40039,0.96875 0.25344,0.25387 0.61003,0.40202 0.96875,0.40234 0.35912,3e-4 0.71677,-0.14645 0.97071,-0.40039 0.25393,-0.25393 0.40069,-0.61158 0.40039,-0.9707 -3.2e-4,-0.35872 -0.14847,-0.71531 -0.40235,-0.96875 -0.25387,-0.25344 -0.61002,-0.40069 -0.96875,-0.40039 z m 17.70899,12.42969 c -0.35912,-3e-4 -0.71677,0.14645 -0.9707,0.40039 -0.25394,0.25393 -0.40069,0.61158 -0.40039,0.9707 3.2e-4,0.35872 0.14846,0.71531 0.40234,0.96875 0.25387,0.25344 0.61003,0.40069 0.96875,0.40039 0.35833,-3.2e-4 0.71537,-0.14701 0.96875,-0.40039 0.25338,-0.25338 0.40007,-0.61042 0.40039,-0.96875 3e-4,-0.35872 -0.14695,-0.71487 -0.40039,-0.96875 -0.25344,-0.25387 -0.61003,-0.40202 -0.96875,-0.40234 z m -38.78711,2.26758 c -0.35872,-3e-4 -0.71488,0.14695 -0.96875,0.40039 -0.25387,0.25343 -0.40202,0.61002 -0.40234,0.96875 -3e-4,0.35911 0.14645,0.71677 0.40039,0.9707 0.25393,0.25393 0.61158,0.40069 0.9707,0.40039 0.35872,-3.2e-4 0.71531,-0.14847 0.96875,-0.40234 0.25344,-0.25388 0.40069,-0.61003 0.40039,-0.96875 -3.2e-4,-0.35833 -0.14701,-0.71538 -0.40039,-0.96875 -0.25338,-0.25338 -0.61042,-0.40007 -0.96875,-0.40039 z m 21.07812,0.97265 c -0.35832,3.3e-4 -0.71537,0.14702 -0.96875,0.40039 -0.25337,0.25338 -0.40006,0.61043 -0.40039,0.96875 -2.9e-4,0.35872 0.14696,0.71488 0.40039,0.96875 0.25344,0.25388 0.61003,0.40202 0.96875,0.40235 0.35912,2.9e-4 0.71677,-0.14646 0.97071,-0.40039 0.25393,-0.25394 0.40069,-0.61159 0.40039,-0.97071 -3.3e-4,-0.35872 -0.14847,-0.71531 -0.40235,-0.96875 -0.25387,-0.25343 -0.61003,-0.40068 -0.96875,-0.40039 z m -54.822261,6.16211 c -0.358721,-3e-4 -0.714877,0.14696 -0.96875,0.40039 -0.253874,0.25344 -0.402018,0.61003 -0.402344,0.96875 -2.97e-4,0.35912 0.146457,0.71677 0.400391,0.9707 0.253934,0.25394 0.611586,0.40069 0.970703,0.4004 0.358722,-3.3e-4 0.715314,-0.14847 0.96875,-0.40235 0.253435,-0.25387 0.400687,-0.61003 0.40039,-0.96875 -3.25e-4,-0.35832 -0.147015,-0.71537 -0.40039,-0.96875 -0.253376,-0.25337 -0.610425,-0.40007 -0.96875,-0.40039 z m 72.531251,4.50195 c -0.35872,-2.9e-4 -0.71488,0.14696 -0.96875,0.40039 -0.25388,0.25344 -0.40202,0.61003 -0.40234,0.96876 -3e-4,0.35911 0.14645,0.71677 0.40039,0.9707 0.25393,0.25393 0.61158,0.40069 0.9707,0.40039 0.35872,-3.2e-4 0.71531,-0.14847 0.96875,-0.40235 0.25343,-0.25387 0.40068,-0.61002 0.40039,-0.96874 -3.2e-4,-0.35833 -0.14701,-0.71538 -0.40039,-0.96876 -0.25338,-0.25337 -0.61042,-0.40006 -0.96875,-0.40039 z m -38.78711,4.03321 c -0.35872,-3e-4 -0.71488,0.14695 -0.96875,0.40039 -0.25387,0.25343 -0.40202,0.61003 -0.40234,0.96875 -3e-4,0.35911 0.14645,0.71677 0.40039,0.9707 0.25393,0.25394 0.61158,0.40069 0.9707,0.40039 0.35872,-3.2e-4 0.71531,-0.14847 0.96875,-0.40234 0.25344,-0.25388 0.40069,-0.61003 0.40039,-0.96875 -3.2e-4,-0.35833 -0.14701,-0.71538 -0.40039,-0.96875 -0.25338,-0.25338 -0.61042,-0.40007 -0.96875,-0.40039 z m 21.07812,0.75 c -0.35872,3.2e-4 -0.71531,0.14847 -0.96875,0.40234 -0.25343,0.25387 -0.40068,0.61003 -0.40039,0.96875 3.3e-4,0.35833 0.14702,0.71537 0.40039,0.96875 0.25338,0.25338 0.61043,0.40007 0.96875,0.40039 0.35873,3e-4 0.71488,-0.14695 0.96875,-0.40039 0.25388,-0.25344 0.40203,-0.61003 0.40235,-0.96875 3e-4,-0.35912 -0.14646,-0.71677 -0.40039,-0.9707 -0.25394,-0.25394 -0.61159,-0.40069 -0.97071,-0.40039 z m -54.822261,6.38476 c -0.359117,-2.9e-4 -0.716769,0.14646 -0.970703,0.40039 -0.253934,0.25394 -0.400688,0.61159 -0.400391,0.97071 3.26e-4,0.35872 0.14847,0.71531 0.402344,0.96875 0.253873,0.25343 0.610029,0.40068 0.96875,0.40039 0.358325,-3.3e-4 0.715374,-0.14702 0.96875,-0.40039 0.253375,-0.25338 0.400065,-0.61043 0.40039,-0.96875 2.97e-4,-0.35872 -0.146955,-0.71488 -0.40039,-0.96875 -0.253436,-0.25388 -0.610028,-0.40202 -0.96875,-0.40235 z m 33.744141,8.00391 c -0.35872,-3e-4 -0.71488,0.14695 -0.96875,0.40039 -0.25387,0.25344 -0.40202,0.61003 -0.40234,0.96875 -3e-4,0.35912 0.14645,0.71677 0.40039,0.9707 0.25393,0.25394 0.61158,0.40069 0.9707,0.40039 0.35872,-3.2e-4 0.71531,-0.14847 0.96875,-0.40234 0.25344,-0.25387 0.40069,-0.61003 0.40039,-0.96875 -3.2e-4,-0.35833 -0.14701,-0.71537 -0.40039,-0.96875 -0.25338,-0.25338 -0.61042,-0.40007 -0.96875,-0.40039 z m -33.744141,0.72266 c -0.358723,-3e-4 -0.714876,0.14695 -0.96875,0.40039 -0.253874,0.25343 -0.402022,0.61002 -0.402344,0.96875 -2.97e-4,0.35911 0.146457,0.71677 0.400391,0.9707 0.253934,0.25393 0.611586,0.40069 0.970703,0.40039 0.358722,-3.2e-4 0.715314,-0.14847 0.96875,-0.40234 0.253435,-0.25388 0.400687,-0.61003 0.40039,-0.96875 -3.22e-4,-0.35833 -0.147015,-0.71538 -0.40039,-0.96875 -0.253376,-0.25338 -0.610423,-0.40007 -0.96875,-0.40039 z" />
    <path
       style="color:#000000;display:inline;fill:#000000;-inkscape-stroke:none"
       xlink:href="#path2718"
       id="path3857"
       d="m 146.00195,104.40625 c -0.38468,0.7272 0.24987,0.76633 0.1875,1.24805 2.17477,-1.3725 -4.6955,4.90196 -0.23242,0.71484 -6.04785,2.44096 -12.07708,4.99878 -18.11523,7.48438 a 0.19752812,0.19752812 0 0 0 -0.12305,0.20117 c 0.0239,0.26599 0.092,0.46538 0.23437,0.5957 0.14234,0.13032 0.33612,0.14915 0.5,0.12109 0.32778,-0.0561 0.64674,-0.25854 0.91211,-0.36328 a 0.19752812,0.19752812 0 0 0 0.004,-0.002 c 5.81979,-2.41421 11.63951,-4.82714 17.45898,-7.24219 0.20563,0.49429 0.40996,0.98953 0.61524,1.48438 a 0.19752812,0.19752812 0 0 0 0.33789,0.0449 c 0.8724,-1.13868 1.74479,-2.27735 2.61719,-3.41602 a 0.19752812,0.19752812 0 0 0 -0.13086,-0.3164 c -1.41414,-0.18097 -2.8694,-0.39154 -4.26563,-0.55469 z m -1.0664,6.64453 c -0.23371,-0.13859 -0.16885,0.0766 -0.22266,0.26953 -0.15049,0.63359 -0.32171,0.44948 0.11133,0.79883 0.43698,0.18101 0.78185,0.15743 0.73047,0.14648 6.41156,1.08478 12.82265,2.1716 19.23437,3.25586 -0.089,0.52788 -0.17827,1.05594 -0.26758,1.58399 a 0.19752812,0.19752812 0 0 0 0.26368,0.21875 l 4.03125,-1.50391 a 0.19752812,0.19752812 0 0 0 0.0586,-0.33789 c -1.10417,-0.91472 -2.20834,-1.82941 -3.3125,-2.74414 a 0.19752812,0.19752812 0 0 0 -0.32227,0.11914 c -0.0893,0.52792 -0.17856,1.05581 -0.26757,1.58399 -6.67913,-1.12958 -13.35805,-2.26048 -20.03711,-3.39063 z m -21.29297,6.11914 c -0.29811,0.7673 0.34131,0.73343 0.33203,1.21875 1.73887,-1.29375 -3.53016,4.71682 -0.15234,0.74024 -5.79373,3.15366 -11.55281,6.42124 -17.33008,9.61718 a 0.19752812,0.19752812 0 0 0 -0.0977,0.21094 c 0.0537,0.2617 0.14253,0.45121 0.29883,0.56445 0.1563,0.11325 0.35235,0.11143 0.51172,0.0645 0.31873,-0.0939 0.61233,-0.33303 0.86328,-0.4668 a 0.19752812,0.19752812 0 0 0 0.002,-0.002 c 5.57074,-3.09997 11.13919,-6.20312 16.71094,-9.30078 0.26076,0.46619 0.52088,0.93336 0.78125,1.40039 a 0.19752812,0.19752812 0 0 0 0.3418,0.006 c 0.73566,-1.23047 1.47135,-2.46094 2.20703,-3.69141 a 0.19752812,0.19752812 0 0 0 -0.16797,-0.29883 c -1.42679,-0.0182 -2.88999,-0.0575 -4.30078,-0.0625 z m 21.52148,1.54492 c -0.32747,0.75481 0.31192,0.74092 0.28516,1.22852 2.70498,-2.18823 -5.72167,6.69838 -0.18164,0.73437 -5.84192,2.90092 -11.65357,5.91426 -17.48047,8.85743 a 0.19752812,0.19752812 0 0 0 -0.10547,0.20898 c 0.044,0.26336 0.127,0.45561 0.2793,0.57422 0.15229,0.11861 0.3469,0.12128 0.50781,0.0801 0.32182,-0.0824 0.62419,-0.30865 0.87891,-0.43164 a 0.19752812,0.19752812 0 0 0 0.004,-0.002 c 5.61702,-2.8536 11.23164,-5.71142 16.84961,-8.5625 0.24281,0.47575 0.48428,0.95293 0.72656,1.42969 a 0.19752812,0.19752812 0 0 0 0.3418,0.0176 c 0.7819,-1.20313 1.5638,-2.40625 2.3457,-3.60938 a 0.19752812,0.19752812 0 0 0 -0.15625,-0.30468 c -1.42285,-0.0701 -2.89458,-0.16762 -4.29492,-0.22071 z m 0.55469,7.48438 c -0.50477,0.14633 -0.42076,0.72619 -0.37891,0.78516 a 0.19752812,0.19752812 0 0 0 0.1543,0.29492 c 6.74738,0.60591 13.49466,1.21323 20.24219,1.81836 -0.0474,0.53288 -0.0963,1.06623 -0.14453,1.59961 a 0.19752812,0.19752812 0 0 0 0.28125,0.19726 c 1.30209,-0.60416 2.60417,-1.20833 3.90625,-1.8125 a 0.19752812,0.19752812 0 0 0 0.0273,-0.3418 c -1.16454,-0.8047 -2.37436,-1.70565 -3.52344,-2.46093 a 0.19752812,0.19752812 0 0 0 -0.30664,0.15039 c -0.0263,0.33612 -0.0222,0.73886 -0.10547,1.04297 -0.0417,0.15205 -0.10164,0.2753 -0.18554,0.36132 -0.0821,0.0842 -0.1912,0.13786 -0.36328,0.15821 -6.51954,-0.65555 -13.07408,-1.18601 -19.60352,-1.79297 z m 1.58398,4.78906 c -1.42578,0.16016 -2.85156,0.32032 -4.27734,0.48047 a 0.19752812,0.19752812 0 0 0 -0.13672,0.3125 c 0.31845,0.43096 0.6368,0.86201 0.95508,1.29297 -5.39108,3.98007 -10.78263,7.95951 -16.17383,11.93945 a 0.19752812,0.19752812 0 0 0 -0.0703,0.22071 c 0.0812,0.24561 0.18328,0.4174 0.33984,0.51757 0.15656,0.10018 0.34715,0.0902 0.4961,0.0332 0.29654,-0.11345 0.54147,-0.36858 0.76953,-0.54493 l 0.004,-0.002 c 5.09443,-3.76188 10.18879,-7.52321 15.28321,-11.28516 0.31856,0.43135 0.63661,0.86329 0.95508,1.29493 a 0.19752812,0.19752812 0 0 0 0.33984,-0.0391 c 0.57292,-1.31576 1.14583,-2.6315 1.71875,-3.94726 a 0.19752812,0.19752812 0 0 0 -0.20313,-0.27344 z m -23.66015,1.85352 c -0.29846,0.76598 0.34211,0.73311 0.33203,1.21679 1.79228,-1.36032 -3.66236,4.87085 -0.1543,0.74024 -5.79432,3.15209 -11.55135,6.42154 -17.32812,9.61719 a 0.19752812,0.19752812 0 0 0 -0.0977,0.21093 c 0.0537,0.2617 0.14252,0.45122 0.29883,0.56446 0.15631,0.11324 0.35236,0.11142 0.51172,0.0645 0.31872,-0.094 0.61235,-0.33309 0.86328,-0.4668 a 0.19752812,0.19752812 0 0 0 0.002,-0.002 c 5.57074,-3.09996 11.13919,-6.20311 16.71094,-9.30078 0.26076,0.4662 0.52088,0.93336 0.78125,1.40039 a 0.19752812,0.19752812 0 0 0 0.3418,0.006 c 0.73632,-1.23112 1.47265,-2.46224 2.20898,-3.69336 a 0.19752812,0.19752812 0 0 0 -0.16797,-0.29883 c -1.42634,-0.0163 -2.89408,-0.0588 -4.30273,-0.0586 z m -29.980471,1.50586 a 0.19752812,0.19752812 0 0 0 -0.296875,0.17773 c 0.0097,0.34007 0.03779,0.76469 -0.03711,1.08399 -0.03745,0.15964 -0.09915,0.28867 -0.185547,0.37695 -0.08603,0.0879 -0.199536,0.14695 -0.392578,0.16211 -4.127237,-0.15941 -8.273318,-0.13919 -12.400391,-0.22852 -2.439909,-0.0365 -4.880422,-0.0728 -7.320312,-0.10937 a 0.19752812,0.19752812 0 0 0 -0.191406,0.13476 c -0.08316,0.25363 -0.100608,0.46277 -0.02148,0.63867 0.07912,0.17591 0.250632,0.27154 0.41211,0.31055 0.322956,0.078 0.69571,0.0181 0.980468,0.0273 a 0.19752812,0.19752812 0 0 0 0.002,0 c 6.370877,0.0946 12.742372,0.1906 19.113281,0.28515 -0.0079,0.5343 -0.01529,1.06707 -0.02344,1.60156 a 0.19752812,0.19752812 0 0 0 0.292969,0.17579 c 1.253255,-0.69857 2.506511,-1.39715 3.759766,-2.09571 a 0.19752812,0.19752812 0 0 0 0.0059,-0.34179 c -1.227125,-0.72649 -2.479378,-1.49457 -3.697266,-2.19922 z m 51.929691,5.74218 c -0.403,0.0577 -0.38998,1.13272 -0.27735,0.87696 6.74739,0.60589 13.67435,1.42807 20.42188,2.0332 -0.0474,0.53289 -0.0963,1.06622 -0.14453,1.59961 a 0.19752812,0.19752812 0 0 0 0.28125,0.19727 c 1.30209,-0.60418 2.60417,-1.20835 3.90625,-1.8125 a 0.19752812,0.19752812 0 0 0 0.0273,-0.3418 c -1.16454,-0.80472 -2.37436,-1.70566 -3.52344,-2.46094 a 0.19752812,0.19752812 0 0 0 -0.30664,0.15625 c -0.0169,0.3405 -0.021,0.76416 -0.11914,1.07422 -0.049,0.15503 -0.11862,0.27656 -0.21094,0.35742 -0.0923,0.0809 -0.20946,0.13217 -0.40429,0.13281 -3.90493,-0.45284 -7.84232,-0.72335 -11.75196,-1.10351 a 0.19752812,0.19752812 0 0 0 -0.002,0 c -2.63196,-0.23661 -5.2646,-0.47239 -7.89648,-0.70899 z m -51.929691,9.92969 a 0.19752812,0.19752812 0 0 0 -0.296875,0.17774 c 0.0096,0.33933 0.0374,0.76338 -0.03711,1.08203 -0.03726,0.15932 -0.09754,0.28655 -0.183594,0.375 -0.08569,0.0881 -0.198669,0.1481 -0.390625,0.16406 -4.228355,-0.15912 -8.476395,-0.14239 -12.705078,-0.23242 -2.339957,-0.0348 -4.679678,-0.0687 -7.019531,-0.10352 a 0.19752812,0.19752812 0 0 0 -0.191406,0.13477 c -0.08316,0.25363 -0.100605,0.46276 -0.02148,0.63867 0.07912,0.17591 0.250629,0.27154 0.41211,0.31055 0.32296,0.078 0.695697,0.0181 0.980468,0.0273 a 0.19752812,0.19752812 0 0 0 0.0039,0 c 6.37023,0.094 12.741079,0.18917 19.111328,0.2832 -0.0079,0.53496 -0.01529,1.06836 -0.02344,1.60352 a 0.19752812,0.19752812 0 0 0 0.292969,0.17578 l 3.759766,-2.0957 a 0.19752812,0.19752812 0 0 0 0.0059,-0.3418 c -1.227125,-0.72648 -2.479378,-1.49456 -3.697266,-2.19922 z m 32.480471,2.54688 c -0.48435,0.66611 0.14671,0.79625 0.0195,1.26562 1.08573,-0.17212 -2.54542,2.26625 -0.33008,0.68555 -6.39369,1.62352 -12.78319,3.36573 -19.17187,5.03515 a 0.19752812,0.19752812 0 0 0 -0.14649,0.1836 c -0.0115,0.26665 0.0285,0.47119 0.15235,0.61914 0.12381,0.14794 0.31438,0.19352 0.48046,0.1875 0.33217,-0.012 0.67448,-0.17037 0.95118,-0.23828 a 0.19752812,0.19752812 0 0 0 0.004,0 c 6.16344,-1.62823 12.32668,-3.2572 18.49024,-4.88477 0.13654,0.51846 0.27332,1.03657 0.41015,1.55469 a 0.19752812,0.19752812 0 0 0 0.33008,0.0898 l 3.05469,-3.03711 a 0.19752812,0.19752812 0 0 0 -0.0879,-0.33203 c -1.38435,-0.37537 -2.77389,-0.75733 -4.15625,-1.1289 z m -32.480471,6.17773 a 0.19752812,0.19752812 0 0 0 -0.296875,0.17774 c 0.0096,0.33933 0.0374,0.76338 -0.03711,1.08203 -0.03726,0.15932 -0.09754,0.28655 -0.183594,0.375 -0.08569,0.0881 -0.198669,0.14809 -0.390625,0.16406 -4.228355,-0.15912 -8.476395,-0.14239 -12.705078,-0.23242 -2.339951,-0.0348 -4.679667,-0.0688 -7.019531,-0.10352 a 0.19752812,0.19752812 0 0 0 -0.191406,0.13477 c -0.08316,0.25363 -0.100605,0.46276 -0.02148,0.63867 0.07912,0.17591 0.250629,0.27154 0.41211,0.31055 0.32296,0.078 0.695697,0.0181 0.980468,0.0273 a 0.19752812,0.19752812 0 0 0 0.0039,0 c 6.37023,0.094 12.741079,0.18917 19.111328,0.2832 -0.0079,0.53626 -0.01529,1.07098 -0.02344,1.60742 a 0.19752812,0.19752812 0 0 0 0.292969,0.17579 l 3.759766,-2.09961 a 0.19752812,0.19752812 0 0 0 0.0059,-0.3418 c -1.227125,-0.72648 -2.479378,-1.49456 -3.697266,-2.19922 z" />
    <g
       id="g23108"
       transform="translate(0,15.139306)"
       style="display:inline;fill:#990099;stroke:#990099;stroke-width:0.7;stroke-dasharray:none">
      <path
         style="display:inline;fill:#990099;stroke:#990099;stroke-width:0.7;stroke-dasharray:none;stroke-opacity:1;marker-end:url(#TriangleStart)"
         d="m 73.020671,145.61545 21.751236,0.32243"
         id="path23092" />
      <path
         style="display:inline;fill:#990099;stroke:#990099;stroke-width:0.7;stroke-dasharray:none;stroke-opacity:1;marker-end:url(#TriangleStart)"
         d="m 106.80095,144.94307 21.04179,-5.55809"
         id="path23096" />
      <path
         style="display:inline;fill:#990099;stroke:#990099;stroke-width:0.7;stroke-dasharray:none;stroke-opacity:1;marker-end:url(#TriangleStart)"
         d="M 127.99503,130.31517 145.3242,117.52138"
         id="path23100" />
      <path
         style="display:inline;fill:#990099;stroke:#990099;stroke-width:0.7;stroke-dasharray:none;stroke-opacity:1;marker-end:url(#TriangleStart)"
         d="m 145.54285,125.49648 21.67607,1.94876"
         id="path23104" />
      <circle
         style="display:inline;fill:#990099;fill-opacity:1;stroke:#990099;stroke-width:0.7;stroke-dasharray:none"
         id="circle23094"
         cx="73.010803"
         cy="145.61531"
         r="1.129926" />
      <circle
         style="display:inline;fill:#990099;fill-opacity:1;stroke:#990099;stroke-width:0.7;stroke-dasharray:none"
         id="circle23098"
         cx="106.75545"
         cy="144.89302"
         r="1.129926" />
      <circle
         style="display:inline;fill:#990099;fill-opacity:1;stroke:#990099;stroke-width:0.7;stroke-dasharray:none"
         id="circle23102"
         cx="127.83428"
         cy="130.50433"
         r="1.129926" />
      <circle
         style="display:inline;fill:#990099;fill-opacity:1;stroke:#990099;stroke-width:0.7;stroke-dasharray:none"
         id="circle23106"
         cx="145.54285"
         cy="125.72045"
         r="1.129926" />
    </g>
    <g
       id="g23090"
       style="display:inline;fill:#990099;stroke:#990099;stroke-width:0.7;stroke-dasharray:none">
      <path
         style="display:inline;fill:#990099;stroke:#990099;stroke-width:0.7;stroke-dasharray:none;stroke-opacity:1;marker-end:url(#TriangleStart)"
         d="m 73.020671,152.02885 21.751236,0.32243"
         id="path22172" />
      <path
         style="display:inline;fill:#990099;stroke:#990099;stroke-width:0.7;stroke-dasharray:none;stroke-opacity:1;marker-end:url(#TriangleStart)"
         d="m 106.75545,144.89303 19.0157,-10.5855"
         id="path22366" />
      <path
         style="display:inline;fill:#990099;stroke:#990099;stroke-width:0.7;stroke-dasharray:none;stroke-opacity:1;marker-end:url(#TriangleStart)"
         d="m 128.03331,130.02279 19.20067,-9.76295"
         id="path22582" />
      <path
         style="display:inline;fill:#990099;stroke:#990099;stroke-width:0.7;stroke-dasharray:none;stroke-opacity:1;marker-end:url(#TriangleStart)"
         d="m 145.54285,126.7329 21.67607,1.94876"
         id="path22808" />
      <circle
         style="display:inline;fill:#990099;fill-opacity:1;stroke:#990099;stroke-width:0.7;stroke-dasharray:none"
         id="circle22102"
         cx="73.010803"
         cy="152.0287"
         r="1.129926" />
      <circle
         style="display:inline;fill:#990099;fill-opacity:1;stroke:#990099;stroke-width:0.7;stroke-dasharray:none"
         id="circle22104"
         cx="106.75545"
         cy="144.89302"
         r="1.129926" />
      <circle
         style="display:inline;fill:#990099;fill-opacity:1;stroke:#990099;stroke-width:0.7;stroke-dasharray:none"
         id="circle22106"
         cx="127.83428"
         cy="130.19632"
         r="1.129926" />
      <circle
         style="display:inline;fill:#990099;fill-opacity:1;stroke:#990099;stroke-width:0.7;stroke-dasharray:none"
         id="circle22108"
         cx="145.54285"
         cy="126.95687"
         r="1.129926" />
    </g>
    <g
       id="g23309"
       style="display:inline;fill:#990099;stroke:#990099;stroke-width:0.7;stroke-dasharray:none"
       transform="translate(0,-15.670393)">
      <path
         style="display:inline;fill:#990099;stroke:#990099;stroke-width:0.7;stroke-dasharray:none;stroke-opacity:1;marker-end:url(#TriangleStart)"
         d="m 73.020671,152.02885 21.751236,0.32243"
         id="path23293" />
      <path
         style="display:inline;fill:#990099;stroke:#990099;stroke-width:0.7;stroke-dasharray:none;stroke-opacity:1;marker-end:url(#TriangleStart)"
         d="m 106.75545,144.89303 19.0157,-10.5855"
         id="path23297" />
      <path
         style="display:inline;fill:#990099;stroke:#990099;stroke-width:0.7;stroke-dasharray:none;stroke-opacity:1;marker-end:url(#TriangleStart)"
         d="m 128.05015,130.03218 19.89589,-8.25434"
         id="path23301" />
      <path
         style="display:inline;fill:#990099;stroke:#990099;stroke-width:0.7;stroke-dasharray:none;stroke-opacity:1;marker-end:url(#TriangleStart)"
         d="m 144.84112,127.26231 21.45858,3.63029"
         id="path23305" />
      <circle
         style="display:inline;fill:#990099;fill-opacity:1;stroke:#990099;stroke-width:0.7;stroke-dasharray:none"
         id="circle23295"
         cx="73.010803"
         cy="152.0287"
         r="1.129926" />
      <circle
         style="display:inline;fill:#990099;fill-opacity:1;stroke:#990099;stroke-width:0.7;stroke-dasharray:none"
         id="circle23299"
         cx="106.75545"
         cy="144.89302"
         r="1.129926" />
      <circle
         style="display:inline;fill:#990099;fill-opacity:1;stroke:#990099;stroke-width:0.7;stroke-dasharray:none"
         id="circle23303"
         cx="127.83428"
         cy="130.19632"
         r="1.129926" />
      <circle
         style="display:inline;fill:#990099;fill-opacity:1;stroke:#990099;stroke-width:0.7;stroke-dasharray:none"
         id="circle23307"
         cx="145.54285"
         cy="126.95687"
         r="1.129926" />
    </g>
    <path
       style="opacity:1;fill:none;fill-opacity:1;stroke:#000000;stroke-width:0.499999;stroke-dasharray:none;stroke-opacity:1;marker-end:url(#TriangleStart)"
       d="m 73.015657,218.05875 0.0013,-24.85947"
       id="path23475" />
    <g
       transform="matrix(2.6413016,0,0,2.6413016,55.018221,197.45194)"
       ns1:version="1.8.2"
       ns1:texconverter="pdflatex"
       ns1:pdfconverter="inkscape"
       ns1:text="$\\Gamma$"
       ns1:preamble="/home/fox/.config/inkscape/extensions/textext/default_packages.tex"
       ns1:scale="1.0"
       ns1:alignment="middle center"
       ns1:stroke-to-path="0"
       ns1:inkscapeversion="1.2.2"
       ns1:jacobian_sqrt="0.352778"
       id="g23964">
      <defs
         id="id-458be9fd-633d-489b-b496-5ba7e884bb37" />
      <g
         id="id-b1a2e1e2-3e89-49c5-8f59-294effc99853"
         transform="translate(-149.04,-127.984)">
        <g
           style="fill:#000000;fill-opacity:1"
           id="id-b92caa5f-c62d-442e-900d-02e2d17e43a6">
          <g
             transform="translate(148.712,134.765)"
             id="g23960">
            <path
               style="stroke:none;stroke-width:0"
               d="m 5.5696318,-6.78125 h -4.191375 v 0.2524925 h 0.1893693 c 0.6186066,0 0.6438558,0.088372 0.6438558,0.3787387 v 4.2166242 c 0,0.2903663 -0.025249,0.3787387 -0.6438558,0.3787387 H 1.3782568 v 0.2524925 c 0.2777417,-0.025249 0.9089729,-0.025249 1.2245885,-0.025249 0.3282402,0 1.0604683,0 1.3508347,0.025249 V -1.5546559 H 3.6885629 c -0.7574774,0 -0.7574774,-0.100997 -0.7574774,-0.3787387 v -4.2797473 c 0,-0.2651171 0.012625,-0.3156156 0.3913633,-0.3156156 H 4.155674 c 1.1488407,0 1.3129608,0.4797357 1.439207,1.5654533 h 0.201994 z m 0,0"
               id="id-eb03fd36-6df3-44fe-a43f-43f264f8fb0f" />
          </g>
        </g>
      </g>
    </g>
    <g
       transform="matrix(1.9570552,0,0,1.9570552,139.4392,183.55925)"
       ns1:version="1.8.2"
       ns1:texconverter="pdflatex"
       ns1:pdfconverter="inkscape"
       ns1:text="$\\tau$\n"
       ns1:preamble="/home/fox/.config/inkscape/extensions/textext/default_packages.tex"
       ns1:scale="1.0"
       ns1:alignment="middle center"
       ns1:stroke-to-path="0"
       ns1:inkscapeversion="1.2.2"
       ns1:jacobian_sqrt="0.352778"
       id="g24459"
       style="fill:#cc0066">
      <defs
         id="id-c2cad7d0-b9e5-4c63-ac71-bf1192fce684" />
      <g
         id="id-fdf93252-4deb-4087-8f86-6c0aefdece8b"
         transform="translate(-148.978,-130.468)"
         style="fill:#cc0066">
        <g
           style="fill:#cc0066;fill-opacity:1"
           id="id-969bebb9-1a92-481f-abaf-873154b6e0b3">
          <g
             transform="translate(148.712,134.765)"
             id="g24455"
             style="fill:#cc0066">
            <path
               style="fill:#cc0066;stroke:none;stroke-width:0"
               d="m 2.9375,-3.71875 h 1.671875 c 0.125,0 0.484375,0 0.484375,-0.34375 0,-0.234375 -0.203125,-0.234375 -0.40625,-0.234375 H 1.90625 c -0.203125,0 -0.59375,0 -1.03125,0.46875 -0.328125,0.359375 -0.609375,0.84375 -0.609375,0.890625 0,0.015625 0,0.109375 0.125,0.109375 0.078125,0 0.09375,-0.046875 0.15625,-0.125 C 1.03125,-3.71875 1.609375,-3.71875 1.8125,-3.71875 h 0.828125 l -0.96875,3.203125 C 1.625,-0.40625 1.5625,-0.1875 1.5625,-0.15625 c 0,0.109375 0.078125,0.28125 0.296875,0.28125 0.328125,0 0.375,-0.28125 0.40625,-0.4375 z m 0,0"
               id="id-c9cebb8a-07a4-4ea7-bfba-605f7e40b555" />
          </g>
        </g>
      </g>
    </g>
    <g
       transform="matrix(2.1558626,0,0,2.0954816,37.82753,133.0565)"
       ns1:version="1.8.2"
       ns1:texconverter="pdflatex"
       ns1:pdfconverter="inkscape"
       ns1:text="$\\Gamma\\tau$"
       ns1:preamble="/home/fox/.config/inkscape/extensions/textext/default_packages.tex"
       ns1:scale="1.0"
       ns1:alignment="middle center"
       ns1:stroke-to-path="0"
       ns1:inkscapeversion="1.2.2"
       ns1:jacobian_sqrt="0.352778"
       id="g25072"
       style="fill:#990099;stroke:#990099">
      <defs
         id="id-d7ba695a-be63-4413-a0d4-e298d12636bd" />
      <g
         id="id-34959ad7-4381-43e2-9306-beb33ca72a1f"
         transform="translate(-149.04,-127.984)"
         style="fill:#990099;stroke:none">
        <g
           style="fill:#990099;fill-opacity:1;stroke:none"
           id="id-07448add-c2a8-4c55-8763-af11490ba382">
          <g
             transform="translate(148.712,134.765)"
             id="g25064"
             style="fill:#990099;stroke:none">
            <path
               style="fill:#990099;stroke:none;stroke-width:0"
               d="m 5.515625,-6.78125 h -5.1875 v 0.3125 H 0.5625 c 0.765625,0 0.796875,0.109375 0.796875,0.46875 v 5.21875 c 0,0.359375 -0.03125,0.46875 -0.796875,0.46875 H 0.328125 V 0 c 0.34375,-0.03125 1.125,-0.03125 1.515625,-0.03125 0.40625,0 1.3125,0 1.671875,0.03125 V -0.3125 H 3.1875 C 2.25,-0.3125 2.25,-0.4375 2.25,-0.78125 v -5.296875 c 0,-0.328125 0.015625,-0.390625 0.484375,-0.390625 h 1.03125 c 1.421875,0 1.625,0.59375 1.78125,1.9375 h 0.25 z m 0,0"
               id="id-23d6fe94-0216-4250-904b-804f9b2620a1" />
          </g>
        </g>
        <g
           style="fill:#990099;fill-opacity:1;stroke:none"
           id="id-fa1c81f2-ff28-4482-9e87-df5b5d2bcb6b">
          <g
             transform="translate(154.939,134.765)"
             id="g25068"
             style="fill:#990099;stroke:none">
            <path
               style="fill:#990099;stroke:none;stroke-width:0"
               d="m 2.9375,-3.71875 h 1.671875 c 0.125,0 0.484375,0 0.484375,-0.34375 0,-0.234375 -0.203125,-0.234375 -0.40625,-0.234375 H 1.90625 c -0.203125,0 -0.59375,0 -1.03125,0.46875 -0.328125,0.359375 -0.609375,0.84375 -0.609375,0.890625 0,0.015625 0,0.109375 0.125,0.109375 0.078125,0 0.09375,-0.046875 0.15625,-0.125 C 1.03125,-3.71875 1.609375,-3.71875 1.8125,-3.71875 h 0.828125 l -0.96875,3.203125 C 1.625,-0.40625 1.5625,-0.1875 1.5625,-0.15625 c 0,0.109375 0.078125,0.28125 0.296875,0.28125 0.328125,0 0.375,-0.28125 0.40625,-0.4375 z m 0,0"
               id="id-aba33fb2-3a74-4473-8a7c-2f7ceff86ac7" />
          </g>
        </g>
      </g>
    </g>
  </g>
</svg>
