<?xml version="1.0" encoding="UTF-8" standalone="no"?>
<!-- Created with Inkscape (http://www.inkscape.org/) -->

<svg
   id="svg5"
   version="1.1"
   viewBox="0 0 131.19864 158.30855"
   height="158.30855mm"
   width="131.19864mm"
   xmlns="http://www.w3.org/2000/svg"
   xmlns:svg="http://www.w3.org/2000/svg"
   xmlns:ns1="http://www.iki.fi/pav/software/textext/">
  <defs
     id="defs2">
    <marker
       style="overflow:visible"
       id="TriangleStart"
       refX="0"
       refY="0"
       orient="auto-start-reverse"
       markerWidth="5.3244081"
       markerHeight="6.155385"
       viewBox="0 0 5.3244081 6.1553851"
       preserveAspectRatio="xMidYMid">
      <path
         transform="scale(0.5)"
         style="fill:context-stroke;fill-rule:evenodd;stroke:context-stroke;stroke-width:1pt"
         d="M 5.77,0 -2.88,5 V -5 Z"
         id="path135" />
    </marker>
    <pattern
       patternUnits="userSpaceOnUse"
       width="1.8897599"
       height="241.92688"
       patternTransform="translate(275.00146,455.79477)"
       id="pattern1975">
      <path
         style="display:inline;fill:#000000;stroke:#000000;stroke-width:1.88976;stroke-opacity:1"
         d="M 0.94487997,0 V 241.92688"
         id="path1972" />
    </pattern>
    <pattern
       patternUnits="userSpaceOnUse"
       width="6.7559093"
       height="289.26021"
       patternTransform="translate(107.77045,781.57708)"
       id="pattern8117">
      <path
         style="opacity:0.433371;fill:none;fill-opacity:1;stroke:#000000;stroke-width:0.755906;stroke-dasharray:none;stroke-dashoffset:0;stroke-opacity:1"
         d="M 0.37795276,0 V 289.26021"
         id="path8075" />
      <path
         style="opacity:0.433371;fill:none;fill-opacity:1;stroke:#000000;stroke-width:0.755906;stroke-dasharray:none;stroke-dashoffset:0;stroke-opacity:1"
         d="M 6.3779565,0 V 289.26021"
         id="path8091" />
    </pattern>
    <clipPath
       clipPathUnits="userSpaceOnUse"
       id="clipPath8244">
      <path
         id="path8246"
         style="display:none;fill:#ffffff;fill-opacity:1;stroke:none;stroke-width:0.762079;stroke-dasharray:0.762079, 0.762079;stroke-dashoffset:0;stroke-opacity:1"
         d="m 136.22461,425.10158 v 76.15429 h 109.14844 v 43.36719 h 59.25781 V 485.36329 H 261.5293 v -60.26171 z" />
      <path
         id="lpe_path-effect8252"
         style="display:inline;fill:#ffffff;fill-opacity:1;stroke:none;stroke-width:0.762079;stroke-dasharray:0.762079, 0.762079;stroke-dashoffset:0;stroke-opacity:1"
         class="powerclip"
         d="m 270.00146,450.79477 h 11.88976 V 702.72165 H 270.00146 Z M 136.22461,425.10158 v 76.15429 h 109.14844 v 43.36719 h 59.25781 V 485.36329 H 261.5293 v -60.26171 z" />
    </clipPath>
    <clipPath
       clipPathUnits="userSpaceOnUse"
       id="clipPath8248">
      <path
         id="path8250"
         style="display:none;fill:#ffffff;fill-opacity:1;stroke:none;stroke-width:0.201633;stroke-dasharray:0.201633, 0.201633;stroke-dashoffset:0;stroke-opacity:1"
         d="m 36.042761,112.47479 v 20.14916 h 28.878858 v 11.47423 H 80.600248 V 128.41903 H 69.196294 v -15.94424 z" />
      <path
         id="lpe_path-effect8256"
         style="display:inline;fill:#ffffff;fill-opacity:1;stroke:none;stroke-width:0.201633;stroke-dasharray:0.201633, 0.201633;stroke-dashoffset:0;stroke-opacity:1"
         class="powerclip"
         d="M 46.516788,91.903487 H 171.55067 V 192.67197 H 46.516788 Z M 36.042761,112.47479 v 20.14916 h 28.878858 v 11.47423 H 80.600248 V 128.41903 H 69.196294 v -15.94424 z" />
    </clipPath>
  </defs>
  <g
     id="layer1"
     style="display:inline"
     transform="translate(-36.042664,-84.498418)">
    <path
       id="path5717-3-2"
       style="display:inline;opacity:1;mix-blend-mode:normal;fill:url(#pattern8117);fill-opacity:1;stroke:#000000;stroke-width:0.499999;stroke-opacity:1"
       d="m 74.043447,120.71395 c -6.40167,-1.68253 -13.75802,-4.22407 -22.27666,-7.82268 v 64.00982 c 8.51864,3.59861 15.87499,6.14015 22.27666,7.82268 57.636623,15.14842 37.885793,-39.33625 92.257223,-18.92183 v -64.00982 c -54.37143,-20.414425 -34.6206,34.07025 -92.257223,18.92183 z"
       clip-path="url(#clipPath8248)" />
    <path
       style="display:inline;opacity:1;fill:none;fill-opacity:1;stroke:#9966ff;stroke-width:0.8;stroke-dasharray:none;stroke-opacity:1"
       d="m 51.864074,218.94081 c 8.518636,3.59861 15.874989,6.14015 22.276657,7.82268 57.636629,15.14842 37.885799,-39.33625 92.257229,-18.92183"
       id="path5717-3" />
    <path
       style="display:inline;fill:none;stroke:#cc0066;stroke-width:0.499999;stroke-opacity:1"
       d="m 53.013528,221.53941 42.254405,10.44816"
       id="path5746" />
    <path
       style="display:inline;fill:none;stroke:#cc0066;stroke-width:0.499999;stroke-opacity:1"
       d="M 126.77256,218.16438 86.738337,235.24831"
       id="path5746-6-5" />
    <path
       style="display:inline;fill:none;stroke:#cc0066;stroke-width:0.499999;stroke-opacity:1"
       d="m 145.39518,196.52861 -35.12179,25.71108"
       id="path5746-6" />
    <path
       style="display:inline;fill:none;stroke:#cc0066;stroke-width:0.499999;stroke-opacity:1"
       d="m 123.86678,201.00427 43.35214,3.89752"
       id="path5746-7" />
    <circle
       style="fill:#000000;fill-opacity:1;stroke:#000000;stroke-width:0.499999"
       id="path5883"
       cx="73.010803"
       cy="226.76349"
       r="1.129926" />
    <circle
       style="display:inline;fill:#000000;fill-opacity:1;stroke:#000000;stroke-width:0.499999"
       id="circle5887"
       cx="106.75545"
       cy="226.70634"
       r="1.129926" />
    <circle
       style="display:inline;fill:#000000;fill-opacity:1;stroke:#000000;stroke-width:0.499999"
       id="circle5885"
       cx="127.83428"
       cy="209.38416"
       r="1.129926" />
    <circle
       style="display:inline;fill:#000000;fill-opacity:1;stroke:#000000;stroke-width:0.499999"
       id="circle5893"
       cx="145.54285"
       cy="202.95303"
       r="1.129926" />
    <path
       style="display:none;fill:url(#pattern1975);stroke:none"
       transform="scale(0.26458333)"
       width="1.8897599"
       height="241.92688"
       x="275.00146"
       y="455.79477"
       id="rect1978"
       clip-path="url(#clipPath8244)"
       d="m 275.00146,455.79477 h 1.88976 v 241.92688 h -1.88976 z" />
    <g
       transform="matrix(1.7464683,0,0,1.7464683,150.43095,213.42948)"
       ns1:version="1.8.2"
       ns1:texconverter="pdflatex"
       ns1:pdfconverter="inkscape"
       ns1:text="$X$"
       ns1:preamble="/home/fox/.config/inkscape/extensions/textext/default_packages.tex"
       ns1:scale="1.0"
       ns1:alignment="middle center"
       ns1:stroke-to-path="0"
       ns1:inkscapeversion="1.2.2"
       ns1:jacobian_sqrt="0.352778"
       id="g1245"
       style="display:inline;fill:#9966ff;stroke:#9966ff">
      <defs
         id="id-8d36aa6b-b030-4803-b4e6-a596c3d0091a" />
      <rect
         style="display:none;opacity:1;fill:none;fill-opacity:1;stroke:none;stroke-width:0.587989;stroke-dasharray:0.587989, 0.587989;stroke-dashoffset:0;stroke-opacity:1"
         id="rect8189"
         width="14.600576"
         height="13.349667"
         x="150.3069"
         y="144.86917"
         transform="matrix(0.57258412,0,0,0.57258412,-86.134372,-83.365939)" />
      <g
         id="id-8b86aa22-2548-4686-bf0d-81aa60e9ee74"
         transform="translate(-148.978,-127.953)"
         style="fill:#9966ff;stroke:#9966ff">
        <g
           style="fill:#9966ff;fill-opacity:1;stroke:#9966ff"
           id="id-1d7d8cf6-3ab0-492a-9ec7-54471e2d37fa">
          <g
             transform="translate(148.712,134.765)"
             id="g1241"
             style="fill:#9966ff;stroke:#9966ff">
            <path
               style="fill:#9966ff;stroke:#9966ff;stroke-width:0"
               d="M 4.828125,-4.09375 4,-6.078125 c -0.03125,-0.078125 -0.046875,-0.125 -0.046875,-0.125 0,-0.0625 0.15625,-0.25 0.578125,-0.296875 0.109375,-0.015625 0.203125,-0.015625 0.203125,-0.1875 0,-0.125 -0.125,-0.125 -0.15625,-0.125 -0.40625,0 -0.828125,0.03125 -1.25,0.03125 -0.25,0 -0.859375,-0.03125 -1.109375,-0.03125 -0.0625,0 -0.1875,0 -0.1875,0.203125 C 2.03125,-6.5 2.140625,-6.5 2.265625,-6.5 c 0.59375,0 0.65625,0.09375 0.75,0.3125 l 1.171875,2.78125 -2.109375,2.265625 -0.125,0.109375 C 1.46875,-0.5 1,-0.34375 0.484375,-0.3125 c -0.125,0.015625 -0.21875,0.015625 -0.21875,0.203125 0,0.015625 0,0.109375 0.140625,0.109375 0.296875,0 0.625,-0.03125 0.921875,-0.03125 C 1.703125,-0.03125 2.09375,0 2.453125,0 2.515625,0 2.625,0 2.625,-0.203125 2.625,-0.296875 2.53125,-0.3125 2.515625,-0.3125 c -0.09375,0 -0.40625,-0.03125 -0.40625,-0.3125 0,-0.15625 0.15625,-0.3125 0.265625,-0.4375 L 3.40625,-2.140625 4.296875,-3.125 l 1,2.390625 c 0.046875,0.109375 0.0625,0.109375 0.0625,0.140625 0,0.078125 -0.203125,0.25 -0.578125,0.28125 C 4.671875,-0.296875 4.578125,-0.296875 4.578125,-0.125 4.578125,0 4.6875,0 4.71875,0 5,0 5.703125,-0.03125 5.984375,-0.03125 6.234375,-0.03125 6.84375,0 7.09375,0 c 0.0625,0 0.1875,0 0.1875,-0.1875 0,-0.125 -0.109375,-0.125 -0.1875,-0.125 -0.65625,0 -0.6875,-0.03125 -0.859375,-0.4375 C 5.859375,-1.671875 5.1875,-3.234375 4.953125,-3.828125 5.625,-4.53125 6.671875,-5.71875 7,-5.984375 7.28125,-6.234375 7.671875,-6.46875 8.265625,-6.5 c 0.125,-0.015625 0.21875,-0.015625 0.21875,-0.203125 0,0 0,-0.109375 -0.125,-0.109375 -0.296875,0 -0.640625,0.03125 -0.9375,0.03125 -0.375,0 -0.75,-0.03125 -1.109375,-0.03125 -0.0625,0 -0.1875,0 -0.1875,0.203125 0,0.0625 0.046875,0.09375 0.109375,0.109375 0.09375,0.015625 0.40625,0.03125 0.40625,0.3125 0,0.140625 -0.109375,0.265625 -0.1875,0.359375 z m 0,0"
               id="id-e0dd0768-28ec-464b-925c-828af99c0b53" />
          </g>
        </g>
      </g>
    </g>
    <g
       transform="matrix(1.7521263,0,0,1.7521263,36.042008,228.14429)"
       ns1:version="1.8.2"
       ns1:texconverter="pdflatex"
       ns1:pdfconverter="inkscape"
       ns1:text="$T_xX$"
       ns1:preamble="/home/fox/.config/inkscape/extensions/textext/default_packages.tex"
       ns1:scale="1.0"
       ns1:alignment="middle center"
       ns1:stroke-to-path="0"
       ns1:inkscapeversion="1.2.2"
       ns1:jacobian_sqrt="0.352778"
       id="g8510">
      <defs
         id="id-19f6ebe0-759d-4df9-b61a-d302d56959d1" />
      <rect
         style="display:none;opacity:1;fill:none;fill-opacity:1;stroke:none;stroke-width:0.184457;stroke-dasharray:0.184457, 0.184457;stroke-dashoffset:0;stroke-opacity:1"
         id="rect8602"
         width="35.061546"
         height="15.945011"
         x="35.224342"
         y="160.30991"
         transform="matrix(0.57073512,0,0,0.57073512,-20.570439,-91.897165)" />
      <g
         id="id-30c7f71b-7d82-4639-9d14-092ee86cf640"
         transform="translate(-148.946,-127.953)"
         style="fill:#cc0066">
        <g
           style="fill:#cc0066;fill-opacity:1"
           id="id-a44ea19b-0858-4d1a-893d-67b284621299">
          <g
             transform="translate(148.712,134.765)"
             id="g8498"
             style="fill:#cc0066">
            <path
               style="fill:#cc0066;stroke:none;stroke-width:0"
               d="m 4.25,-6.046875 c 0.078125,-0.28125 0.109375,-0.34375 0.234375,-0.375 0.09375,-0.015625 0.421875,-0.015625 0.625,-0.015625 1.015625,0 1.453125,0.03125 1.453125,0.8125 0,0.15625 -0.03125,0.546875 -0.078125,0.796875 0,0.046875 -0.03125,0.15625 -0.03125,0.1875 0,0.0625 0.03125,0.140625 0.125,0.140625 0.109375,0 0.125,-0.078125 0.15625,-0.234375 L 7,-6.46875 C 7.015625,-6.515625 7.015625,-6.609375 7.015625,-6.640625 7.015625,-6.75 6.921875,-6.75 6.75,-6.75 H 1.21875 c -0.234375,0 -0.25,0.015625 -0.328125,0.203125 l -0.59375,1.75 c 0,0.015625 -0.0625,0.15625 -0.0625,0.1875 0,0.046875 0.0625,0.109375 0.125,0.109375 0.09375,0 0.109375,-0.0625 0.171875,-0.21875 C 1.0625,-6.265625 1.328125,-6.4375 2.796875,-6.4375 H 3.1875 c 0.28125,0 0.28125,0.03125 0.28125,0.125 0,0.046875 -0.03125,0.171875 -0.046875,0.203125 L 2.09375,-0.78125 C 2,-0.421875 1.96875,-0.3125 0.90625,-0.3125 c -0.359375,0 -0.421875,0 -0.421875,0.1875 C 0.484375,0 0.59375,0 0.65625,0 c 0.265625,0 0.546875,-0.015625 0.8125,-0.015625 0.28125,0 0.578125,-0.015625 0.859375,-0.015625 0.28125,0 0.546875,0.015625 0.828125,0.015625 C 3.4375,-0.015625 3.734375,0 4.015625,0 c 0.09375,0 0.21875,0 0.21875,-0.203125 0,-0.109375 -0.078125,-0.109375 -0.34375,-0.109375 -0.234375,0 -0.375,0 -0.625,-0.015625 -0.296875,-0.03125 -0.375,-0.0625 -0.375,-0.21875 0,-0.015625 0,-0.0625 0.046875,-0.203125 z m 0,0"
               id="id-c96befe3-922b-4ef3-b0e0-3da6d00a0658" />
          </g>
        </g>
        <g
           style="fill:#cc0066;fill-opacity:1"
           id="id-af228374-76bf-4676-b980-865785e6a42c">
          <g
             transform="translate(154.534,136.259)"
             id="g8502"
             style="fill:#cc0066">
            <path
               style="fill:#cc0066;stroke:none;stroke-width:0"
               d="M 1.734375,-0.734375 C 1.671875,-0.5 1.4375,-0.125 1.078125,-0.125 c -0.015625,0 -0.234375,0 -0.375,-0.09375 0.28125,-0.09375 0.3125,-0.34375 0.3125,-0.390625 0,-0.15625 -0.125,-0.25 -0.28125,-0.25 -0.203125,0 -0.40625,0.15625 -0.40625,0.421875 0,0.34375 0.390625,0.5 0.734375,0.5 0.328125,0 0.609375,-0.1875 0.78125,-0.484375 C 2.015625,-0.0625 2.390625,0.0625 2.671875,0.0625 c 0.8125,0 1.234375,-0.859375 1.234375,-1.0625 0,-0.09375 -0.09375,-0.09375 -0.109375,-0.09375 -0.109375,0 -0.109375,0.046875 -0.140625,0.125 -0.140625,0.484375 -0.5625,0.84375 -0.953125,0.84375 -0.28125,0 -0.421875,-0.1875 -0.421875,-0.453125 0,-0.1875 0.171875,-0.8125 0.359375,-1.59375 C 2.78125,-2.703125 3.09375,-2.875 3.328125,-2.875 c 0.015625,0 0.21875,0 0.375,0.09375 -0.21875,0.0625 -0.3125,0.265625 -0.3125,0.390625 0,0.140625 0.125,0.25 0.28125,0.25 0.15625,0 0.390625,-0.125 0.390625,-0.421875 0,-0.390625 -0.453125,-0.515625 -0.71875,-0.515625 -0.359375,0 -0.640625,0.234375 -0.78125,0.5 -0.125,-0.28125 -0.453125,-0.5 -0.84375,-0.5 C 0.9375,-3.078125 0.5,-2.21875 0.5,-2 c 0,0.078125 0.09375,0.078125 0.109375,0.078125 0.09375,0 0.09375,-0.015625 0.140625,-0.109375 C 0.921875,-2.578125 1.359375,-2.875 1.703125,-2.875 1.9375,-2.875 2.125,-2.75 2.125,-2.421875 2.125,-2.28125 2.03125,-1.9375 1.96875,-1.6875 Z m 0,0"
               id="id-c8e95905-e7fd-4dbb-b322-5954e24850bf" />
          </g>
        </g>
        <g
           style="fill:#cc0066;fill-opacity:1"
           id="id-034a3b96-d9da-462c-884e-15885ac5df33">
          <g
             transform="translate(159.55,134.765)"
             id="g8506"
             style="fill:#cc0066">
            <path
               style="fill:#cc0066;stroke:none;stroke-width:0"
               d="M 4.828125,-4.09375 4,-6.078125 c -0.03125,-0.078125 -0.046875,-0.125 -0.046875,-0.125 0,-0.0625 0.15625,-0.25 0.578125,-0.296875 0.109375,-0.015625 0.203125,-0.015625 0.203125,-0.1875 0,-0.125 -0.125,-0.125 -0.15625,-0.125 -0.40625,0 -0.828125,0.03125 -1.25,0.03125 -0.25,0 -0.859375,-0.03125 -1.109375,-0.03125 -0.0625,0 -0.1875,0 -0.1875,0.203125 C 2.03125,-6.5 2.140625,-6.5 2.265625,-6.5 c 0.59375,0 0.65625,0.09375 0.75,0.3125 l 1.171875,2.78125 -2.109375,2.265625 -0.125,0.109375 C 1.46875,-0.5 1,-0.34375 0.484375,-0.3125 c -0.125,0.015625 -0.21875,0.015625 -0.21875,0.203125 0,0.015625 0,0.109375 0.140625,0.109375 0.296875,0 0.625,-0.03125 0.921875,-0.03125 C 1.703125,-0.03125 2.09375,0 2.453125,0 2.515625,0 2.625,0 2.625,-0.203125 2.625,-0.296875 2.53125,-0.3125 2.515625,-0.3125 c -0.09375,0 -0.40625,-0.03125 -0.40625,-0.3125 0,-0.15625 0.15625,-0.3125 0.265625,-0.4375 L 3.40625,-2.140625 4.296875,-3.125 l 1,2.390625 c 0.046875,0.109375 0.0625,0.109375 0.0625,0.140625 0,0.078125 -0.203125,0.25 -0.578125,0.28125 C 4.671875,-0.296875 4.578125,-0.296875 4.578125,-0.125 4.578125,0 4.6875,0 4.71875,0 5,0 5.703125,-0.03125 5.984375,-0.03125 6.234375,-0.03125 6.84375,0 7.09375,0 c 0.0625,0 0.1875,0 0.1875,-0.1875 0,-0.125 -0.109375,-0.125 -0.1875,-0.125 -0.65625,0 -0.6875,-0.03125 -0.859375,-0.4375 C 5.859375,-1.671875 5.1875,-3.234375 4.953125,-3.828125 5.625,-4.53125 6.671875,-5.71875 7,-5.984375 7.28125,-6.234375 7.671875,-6.46875 8.265625,-6.5 c 0.125,-0.015625 0.21875,-0.015625 0.21875,-0.203125 0,0 0,-0.109375 -0.125,-0.109375 -0.296875,0 -0.640625,0.03125 -0.9375,0.03125 -0.375,0 -0.75,-0.03125 -1.109375,-0.03125 -0.0625,0 -0.1875,0 -0.1875,0.203125 0,0.0625 0.046875,0.09375 0.109375,0.109375 0.09375,0.015625 0.40625,0.03125 0.40625,0.3125 0,0.140625 -0.109375,0.265625 -0.1875,0.359375 z m 0,0"
               id="id-ab050d76-99de-43e4-a99c-560bc40c4507" />
          </g>
        </g>
      </g>
    </g>
    <g
       transform="matrix(1.7744414,0,0,1.7744414,15.021771,139.27471)"
       ns1:version="1.8.2"
       ns1:texconverter="pdflatex"
       ns1:pdfconverter="inkscape"
       ns1:text="$T_yY$"
       ns1:preamble="/home/fox/.config/inkscape/extensions/textext/default_packages.tex"
       ns1:scale="1.0"
       ns1:alignment="middle center"
       ns1:stroke-to-path="0"
       ns1:inkscapeversion="1.2.2"
       ns1:jacobian_sqrt="0.352778"
       id="g8776">
      <defs
         id="id-14b5109a-e154-4859-b6fb-a6e63b1ce69c" />
      <rect
         style="display:none;fill:none;fill-opacity:1;stroke:none;stroke-width:0.113632;stroke-dasharray:0.113632, 0.113632;stroke-dashoffset:0;stroke-opacity:1"
         id="rect8602-3"
         width="18.684021"
         height="11.355178"
         x="11.846485"
         y="-15.103199" />
      <g
         id="id-b3994aee-8ac5-460a-87a1-086ed90227c5"
         transform="translate(-136.62348,-142.00023)"
         style="fill:#996600">
        <g
           style="fill:#996600;fill-opacity:1"
           id="id-b9c108c7-93f1-4f8b-acec-a7cf5c2d3ea1">
          <g
             transform="translate(148.712,134.765)"
             id="g8764"
             style="fill:#996600">
            <path
               style="fill:#996600;stroke:none;stroke-width:0"
               d="m 4.25,-6.046875 c 0.078125,-0.28125 0.109375,-0.34375 0.234375,-0.375 0.09375,-0.015625 0.421875,-0.015625 0.625,-0.015625 1.015625,0 1.453125,0.03125 1.453125,0.8125 0,0.15625 -0.03125,0.546875 -0.078125,0.796875 0,0.046875 -0.03125,0.15625 -0.03125,0.1875 0,0.0625 0.03125,0.140625 0.125,0.140625 0.109375,0 0.125,-0.078125 0.15625,-0.234375 L 7,-6.46875 C 7.015625,-6.515625 7.015625,-6.609375 7.015625,-6.640625 7.015625,-6.75 6.921875,-6.75 6.75,-6.75 H 1.21875 c -0.234375,0 -0.25,0.015625 -0.328125,0.203125 l -0.59375,1.75 c 0,0.015625 -0.0625,0.15625 -0.0625,0.1875 0,0.046875 0.0625,0.109375 0.125,0.109375 0.09375,0 0.109375,-0.0625 0.171875,-0.21875 C 1.0625,-6.265625 1.328125,-6.4375 2.796875,-6.4375 H 3.1875 c 0.28125,0 0.28125,0.03125 0.28125,0.125 0,0.046875 -0.03125,0.171875 -0.046875,0.203125 L 2.09375,-0.78125 C 2,-0.421875 1.96875,-0.3125 0.90625,-0.3125 c -0.359375,0 -0.421875,0 -0.421875,0.1875 C 0.484375,0 0.59375,0 0.65625,0 c 0.265625,0 0.546875,-0.015625 0.8125,-0.015625 0.28125,0 0.578125,-0.015625 0.859375,-0.015625 0.28125,0 0.546875,0.015625 0.828125,0.015625 C 3.4375,-0.015625 3.734375,0 4.015625,0 c 0.09375,0 0.21875,0 0.21875,-0.203125 0,-0.109375 -0.078125,-0.109375 -0.34375,-0.109375 -0.234375,0 -0.375,0 -0.625,-0.015625 -0.296875,-0.03125 -0.375,-0.0625 -0.375,-0.21875 0,-0.015625 0,-0.0625 0.046875,-0.203125 z m 0,0"
               id="id-47cc0ced-8b17-4dfb-9689-2b12343ad516" />
          </g>
        </g>
        <g
           style="fill:#996600;fill-opacity:1"
           id="id-d2c76eb8-297e-4c2d-b7d4-174a47165f07">
          <g
             transform="translate(154.534,136.259)"
             id="g8768"
             style="fill:#996600">
            <path
               style="fill:#996600;stroke:none;stroke-width:0"
               d="M 3.875,-2.625 C 3.90625,-2.71875 3.90625,-2.734375 3.90625,-2.78125 3.90625,-2.921875 3.796875,-3 3.671875,-3 3.59375,-3 3.46875,-2.96875 3.390625,-2.84375 3.359375,-2.796875 3.3125,-2.578125 3.28125,-2.4375 L 3.125,-1.859375 c -0.03125,0.171875 -0.25,1.046875 -0.28125,1.125 0,0 -0.3125,0.609375 -0.84375,0.609375 -0.484375,0 -0.484375,-0.453125 -0.484375,-0.578125 0,-0.375 0.15625,-0.8125 0.375,-1.359375 C 1.96875,-2.28125 2,-2.359375 2,-2.484375 2,-2.8125 1.71875,-3.078125 1.34375,-3.078125 0.640625,-3.078125 0.328125,-2.125 0.328125,-2 c 0,0.078125 0.09375,0.078125 0.125,0.078125 0.09375,0 0.09375,-0.03125 0.125,-0.109375 C 0.75,-2.609375 1.046875,-2.875 1.328125,-2.875 1.4375,-2.875 1.5,-2.796875 1.5,-2.640625 c 0,0.171875 -0.0625,0.3125 -0.09375,0.40625 C 1.0625,-1.375 1,-1.125 1,-0.8125 1,-0.703125 1,-0.375 1.265625,-0.140625 1.484375,0.03125 1.78125,0.0625 1.96875,0.0625 2.25,0.0625 2.5,-0.03125 2.71875,-0.25 2.640625,0.140625 2.5625,0.4375 2.265625,0.78125 2.078125,1 1.796875,1.21875 1.421875,1.21875 c -0.046875,0 -0.375,0 -0.515625,-0.21875 0.375,-0.046875 0.375,-0.375 0.375,-0.390625 0,-0.21875 -0.203125,-0.265625 -0.265625,-0.265625 -0.171875,0 -0.40625,0.140625 -0.40625,0.46875 0,0.34375 0.328125,0.609375 0.828125,0.609375 C 2.140625,1.421875 3,0.875 3.21875,0 Z m 0,0"
               id="id-d22ebb86-9bbb-419f-8106-e32a3d06d33b" />
          </g>
        </g>
        <g
           style="fill:#996600;fill-opacity:1"
           id="id-ba37a6e1-d2dc-492a-85b7-e0da6470a088">
          <g
             transform="translate(159.323,134.765)"
             id="g8772"
             style="fill:#996600">
            <path
               style="fill:#996600;stroke:none;stroke-width:0"
               d="M 5.953125,-5.671875 6.09375,-5.8125 C 6.390625,-6.109375 6.71875,-6.453125 7.390625,-6.5 7.5,-6.515625 7.59375,-6.515625 7.59375,-6.6875 c 0,-0.078125 -0.046875,-0.125 -0.125,-0.125 -0.265625,0 -0.546875,0.03125 -0.8125,0.03125 -0.34375,0 -0.6875,-0.03125 -1,-0.03125 -0.0625,0 -0.1875,0 -0.1875,0.1875 0,0.109375 0.09375,0.125 0.140625,0.125 0.078125,0 0.359375,0.015625 0.359375,0.234375 0,0.171875 -0.234375,0.421875 -0.265625,0.46875 L 3.390625,-3.125 2.296875,-6.09375 C 2.234375,-6.234375 2.234375,-6.25 2.234375,-6.265625 2.234375,-6.5 2.71875,-6.5 2.828125,-6.5 c 0.125,0 0.234375,0 0.234375,-0.203125 0,-0.109375 -0.125,-0.109375 -0.15625,-0.109375 -0.28125,0 -0.96875,0.03125 -1.25,0.03125 -0.25,0 -0.875,-0.03125 -1.125,-0.03125 -0.046875,0 -0.1875,0 -0.1875,0.203125 C 0.34375,-6.5 0.453125,-6.5 0.578125,-6.5 c 0.59375,0 0.640625,0.09375 0.734375,0.34375 L 2.53125,-2.875 c 0.015625,0.03125 0.046875,0.140625 0.046875,0.15625 0,0.03125 -0.40625,1.640625 -0.453125,1.828125 C 2,-0.34375 1.984375,-0.3125 1.1875,-0.3125 c -0.1875,0 -0.265625,0 -0.265625,0.203125 C 0.921875,0 1.03125,0 1.0625,0 c 0.265625,0 0.96875,-0.03125 1.25,-0.03125 0.28125,0 1,0.03125 1.28125,0.03125 0.0625,0 0.1875,0 0.1875,-0.203125 C 3.78125,-0.3125 3.6875,-0.3125 3.5,-0.3125 c -0.015625,0 -0.203125,0 -0.375,-0.015625 C 2.90625,-0.34375 2.84375,-0.375 2.84375,-0.484375 c 0,-0.078125 0.09375,-0.421875 0.140625,-0.625 l 0.359375,-1.40625 c 0.046875,-0.203125 0.0625,-0.21875 0.140625,-0.3125 z m 0,0"
               id="id-415ca4d3-46aa-46f7-a550-264df34692fa" />
          </g>
        </g>
      </g>
    </g>
    <path
       style="display:inline;fill:#000000;fill-opacity:1;stroke:none;stroke-width:0"
       d="m 163.63948,86.52239 0.24953,-0.24953 c 0.52678,-0.526788 1.10902,-1.136752 2.30123,-1.219929 0.19408,-0.02773 0.36043,-0.02773 0.36043,-0.332708 0,-0.138628 -0.0832,-0.221805 -0.22181,-0.221805 -0.47133,0 -0.97039,0.05545 -1.44173,0.05545 -0.60996,0 -1.21993,-0.05545 -1.77444,-0.05545 -0.1109,0 -0.33271,0 -0.33271,0.332708 0,0.194079 0.16636,0.221805 0.24953,0.221805 0.13863,0 0.63769,0.02773 0.63769,0.415885 0,0.304982 -0.41588,0.748592 -0.47133,0.831769 l -4.1034,4.741086 -1.94079,-5.267873 c -0.11091,-0.249531 -0.11091,-0.277257 -0.11091,-0.304982 0,-0.415885 0.8595,-0.415885 1.05358,-0.415885 0.2218,0 0.41588,0 0.41588,-0.360433 0,-0.19408 -0.2218,-0.19408 -0.27725,-0.19408 -0.49907,0 -1.71899,0.05545 -2.21806,0.05545 -0.44361,0 -1.55263,-0.05545 -1.99624,-0.05545 -0.0832,0 -0.33271,0 -0.33271,0.360434 0,0.194079 0.19408,0.194079 0.41588,0.194079 1.05358,0 1.13676,0.166354 1.30311,0.609964 l 2.1626,5.822386 c 0.0277,0.05545 0.0832,0.249531 0.0832,0.277257 0,0.05545 -0.72087,2.911193 -0.80405,3.2439 -0.2218,0.970398 -0.24953,1.025849 -1.66354,1.025849 -0.3327,0 -0.47133,0 -0.47133,0.360434 0,0.194079 0.19408,0.194079 0.24953,0.194079 0.47134,0 1.71899,-0.05545 2.21805,-0.05545 0.49906,0 1.77444,0.05545 2.2735,0.05545 0.11091,0 0.33271,0 0.33271,-0.360433 0,-0.19408 -0.16635,-0.19408 -0.49906,-0.19408 -0.0277,0 -0.36043,0 -0.66542,-0.02772 -0.38815,-0.02773 -0.49906,-0.08318 -0.49906,-0.277257 0,-0.138628 0.16636,-0.748592 0.24953,-1.109026 l 0.63769,-2.495308 c 0.0832,-0.360433 0.11091,-0.388159 0.24953,-0.554513 z m 0,0"
       id="path9090" />
    <g
       id="g8132"
       transform="translate(42.448247,7.7735861)"
       style="display:inline">
      <rect
         style="display:inline;opacity:0.9813;fill:none;fill-opacity:1;stroke:#996600;stroke-width:0.2;stroke-dasharray:none;stroke-dashoffset:0;stroke-opacity:1"
         id="rect8123"
         width="15.678805"
         height="15.678805"
         x="22.473154"
         y="120.6457" />
      <circle
         style="display:inline;fill:#996600;fill-opacity:1;stroke:#996600;stroke-width:0.499999"
         id="circle8134"
         cx="30.312557"
         cy="128.48509"
         r="1.129926" />
      <path
         style="opacity:0.9813;fill:none;fill-opacity:1;stroke:#996600;stroke-width:0.5;stroke-dasharray:none;stroke-dashoffset:0;stroke-opacity:1"
         d="m 30.312557,122.26307 v 12.44405"
         id="path8125" />
      <path
         style="opacity:0.9813;fill:none;fill-opacity:1;stroke:#996600;stroke-width:0.5;stroke-dasharray:0.5, 0.5;stroke-dashoffset:0;stroke-opacity:1"
         d="M 36.534582,128.4851 H 24.090532"
         id="path8127" />
    </g>
    <g
       id="g9080">
      <path
         style="opacity:1;fill:none;fill-opacity:1;stroke:#000000;stroke-width:0.446884;stroke-dasharray:none;stroke-opacity:1;marker-start:url(#TriangleStart)"
         d="M 73.260801,218.61196 V 188.58381"
         id="path8365" />
      <g
         transform="matrix(2.3071235,0,0,2.3071235,57.231289,197.83818)"
         ns1:version="1.8.2"
         ns1:texconverter="pdflatex"
         ns1:pdfconverter="inkscape"
         ns1:text="$\\pi$"
         ns1:preamble="/home/fox/.config/inkscape/extensions/textext/default_packages.tex"
         ns1:scale="1.0"
         ns1:alignment="middle center"
         ns1:stroke-to-path="0"
         ns1:inkscapeversion="1.2.2"
         ns1:jacobian_sqrt="0.352778"
         id="g8909">
        <defs
           id="id-5a98485d-8f42-498d-a4a5-77f723ff3cbb" />
        <g
           id="id-17c02fe4-d1b3-49f8-9283-344c84f7694c"
           transform="translate(-148.978,-130.468)">
          <g
             style="fill:#000000;fill-opacity:1"
             id="id-25796bfc-90d2-4899-a6df-16da5e49ada8">
            <g
               transform="translate(148.712,134.765)"
               id="g8905">
              <path
                 style="stroke:none;stroke-width:0"
                 d="m 2.640625,-3.71875 h 1.125 C 3.4375,-2.25 3.34375,-1.8125 3.34375,-1.140625 c 0,0.140625 0,0.40625 0.078125,0.75 0.109375,0.4375 0.21875,0.5 0.359375,0.5 0.203125,0 0.421875,-0.171875 0.421875,-0.375 0,-0.0625 0,-0.078125 -0.0625,-0.21875 -0.296875,-0.71875 -0.296875,-1.375 -0.296875,-1.65625 0,-0.515625 0.078125,-1.0625 0.1875,-1.578125 h 1.125 c 0.140625,0 0.5,0 0.5,-0.34375 0,-0.234375 -0.21875,-0.234375 -0.40625,-0.234375 H 1.90625 c -0.21875,0 -0.59375,0 -1.03125,0.46875 -0.34375,0.390625 -0.609375,0.84375 -0.609375,0.890625 0,0.015625 0,0.109375 0.125,0.109375 0.078125,0 0.09375,-0.046875 0.15625,-0.125 C 1.03125,-3.71875 1.609375,-3.71875 1.8125,-3.71875 H 2.375 C 2.0625,-2.515625 1.53125,-1.3125 1.109375,-0.40625 1.03125,-0.25 1.03125,-0.234375 1.03125,-0.15625 c 0,0.1875 0.15625,0.265625 0.28125,0.265625 0.296875,0 0.375,-0.28125 0.5,-0.640625 C 1.953125,-1 1.953125,-1.015625 2.078125,-1.515625 Z m 0,0"
                 id="id-aff34868-f7b8-4c0d-98e1-e71cfe84ecfe" />
            </g>
          </g>
        </g>
      </g>
    </g>
  </g>
</svg>
