<?xml version="1.0" encoding="UTF-8" standalone="no"?>
<!DOCTYPE svg PUBLIC "-//W3C//DTD SVG 1.1//EN"
 "http://www.w3.org/Graphics/SVG/1.1/DTD/svg11.dtd">
<!-- Generated by graphviz version 2.43.0 (0)
 -->
<!-- Title: G Pages: 1 -->
<svg width="736pt" height="98pt"
 viewBox="0.00 0.00 736.27 98.00" xmlns="http://www.w3.org/2000/svg" xmlns:xlink="http://www.w3.org/1999/xlink">
<g id="graph0" class="graph" transform="scale(1 1) rotate(0) translate(4 94)">
<title>G</title>
<polygon fill="white" stroke="transparent" points="-4,4 -4,-94 732.27,-94 732.27,4 -4,4"/>
<!-- A -->
<g id="node1" class="node">
<title>A</title>
<ellipse fill="none" stroke="black" cx="658.73" cy="-45" rx="69.59" ry="18"/>
<text text-anchor="middle" x="658.73" y="-41.3" font-family="Liberation Mono" font-size="14.00">example.com</text>
</g>
<!-- B -->
<g id="node2" class="node">
<title>B</title>
<ellipse fill="none" stroke="black" cx="348.09" cy="-72" rx="27" ry="18"/>
<text text-anchor="middle" x="348.09" y="-68.3" font-family="Liberation Mono" font-size="14.00">foo</text>
</g>
<!-- B&#45;&gt;A -->
<g id="edge1" class="edge">
<title>B&#45;&gt;A</title>
<path fill="none" stroke="black" d="M375.14,-69.72C420.41,-65.76 515.2,-57.47 582.5,-51.58"/>
<polygon fill="black" stroke="black" points="582.97,-55.05 592.63,-50.69 582.36,-48.08 582.97,-55.05"/>
<text text-anchor="middle" x="492.69" y="-69.8" font-family="Liberation Mono" font-size="14.00">foo.example.com</text>
</g>
<!-- C -->
<g id="node3" class="node">
<title>C</title>
<ellipse fill="none" stroke="black" cx="348.09" cy="-18" rx="48.19" ry="18"/>
<text text-anchor="middle" x="348.09" y="-14.3" font-family="Liberation Mono" font-size="14.00">baz.bar</text>
</g>
<!-- C&#45;&gt;A -->
<g id="edge2" class="edge">
<title>C&#45;&gt;A</title>
<path fill="none" stroke="black" d="M395.97,-20.21C440.97,-22.55 510.83,-26.79 571.19,-33 576.56,-33.55 582.12,-34.19 587.7,-34.86"/>
<polygon fill="black" stroke="black" points="587.38,-38.35 597.74,-36.13 588.25,-31.41 587.38,-38.35"/>
<text text-anchor="middle" x="492.69" y="-36.8" font-family="Liberation Mono" font-size="14.00">baz.bar.example.com</text>
</g>
<!-- D -->
<g id="node4" class="node">
<title>D</title>
<ellipse fill="none" stroke="black" cx="32.5" cy="-18" rx="32.49" ry="18"/>
<text text-anchor="middle" x="32.5" y="-14.3" font-family="Liberation Mono" font-size="14.00">mail</text>
</g>
<!-- D&#45;&gt;C -->
<g id="edge3" class="edge">
<title>D&#45;&gt;C</title>
<path fill="none" stroke="black" d="M65,-18C117.49,-18 223.57,-18 289.64,-18"/>
<polygon fill="black" stroke="black" points="289.88,-21.5 299.88,-18 289.88,-14.5 289.88,-21.5"/>
<text text-anchor="middle" x="182.49" y="-21.8" font-family="Liberation Mono" font-size="14.00">mail.baz.bar.example.com</text>
</g>
</g>
</svg>
