<?xml version="1.0" encoding="UTF-8" standalone="no"?>
<!-- Created with Inkscape (http://www.inkscape.org/) -->

<svg
   width="80.128899mm"
   height="79.980141mm"
   viewBox="0 0 80.128899 79.980141"
   version="1.1"
   id="svg5"
   xmlns="http://www.w3.org/2000/svg"
   xmlns:svg="http://www.w3.org/2000/svg"
   xmlns:ns1="http://www.iki.fi/pav/software/textext/">
  <defs
     id="defs2">
    <marker
       style="overflow:visible"
       id="Arrow4"
       refX="-1.4547017"
       refY="0.0099114869"
       orient="-12.34206867"
       markerWidth="161.74249"
       markerHeight="194.091"
       viewBox="0 0 5 6"
       preserveAspectRatio="none">
      <path
         style="fill:context-stroke;fill-rule:evenodd;stroke:none"
         d="m 1,0 -3,3 h -2 l 3,-3 -3,-3 h 2 z"
         id="path1741" />
    </marker>
    <marker
       style="overflow:visible"
       id="Arrow5"
       refX="0.75422359"
       refY="1.2855308e-09"
       orient="auto-start-reverse"
       markerWidth="18.355099"
       markerHeight="20.606216"
       viewBox="0 0 5.8874262 6.6094758"
       preserveAspectRatio="xMidYMid">
      <path
         transform="scale(0.5)"
         style="fill:context-stroke;fill-rule:evenodd;stroke:context-stroke;stroke-width:1pt"
         d="m 6,0 c -3,1 -7,3 -9,5 0,0 0,-4 2,-5 -2,-1 -2,-5 -2,-5 2,2 6,4 9,5 z"
         id="path8893" />
    </marker>
    <linearGradient
       id="linearGradient6022">
      <stop
         style="stop-color:#000000;stop-opacity:1;"
         offset="0"
         id="stop6020" />
    </linearGradient>
    <clipPath
       clipPathUnits="userSpaceOnUse"
       id="clipPath3961">
      <rect
         style="fill:none;stroke:#000000;stroke-width:0.264999"
         id="rect3963"
         width="81.615868"
         height="35.898643"
         x="71.000984"
         y="134.48495" />
    </clipPath>
    <clipPath
       clipPathUnits="userSpaceOnUse"
       id="clipPath3965">
      <rect
         style="fill:none;stroke:#000000;stroke-width:0.264999"
         id="rect3967"
         width="81.615868"
         height="35.898643"
         x="71.004494"
         y="98.60463" />
    </clipPath>
    <clipPath
       clipPathUnits="userSpaceOnUse"
       id="clipPath3961-3">
      <rect
         style="fill:none;stroke:#000000;stroke-width:0.264999"
         id="rect3963-6"
         width="81.615868"
         height="35.898643"
         x="71.000984"
         y="134.48495" />
    </clipPath>
    <clipPath
       clipPathUnits="userSpaceOnUse"
       id="clipPath3961-35">
      <rect
         style="fill:none;stroke:#000000;stroke-width:0.264999"
         id="rect3963-62"
         width="81.615868"
         height="35.898643"
         x="71.000984"
         y="134.48495" />
    </clipPath>
    <clipPath
       clipPathUnits="userSpaceOnUse"
       id="clipPath1597">
      <ellipse
         style="fill:none;stroke:#000000;stroke-width:0.235864"
         id="ellipse1599"
         cx="121.16456"
         cy="139.12341"
         rx="27.051352"
         ry="14.802927" />
    </clipPath>
    <clipPath
       clipPathUnits="userSpaceOnUse"
       id="clipPath1663">
      <rect
         style="fill:#000000;fill-opacity:1;stroke:#0000b8;stroke-width:0.41373;stroke-dasharray:none;stroke-opacity:1"
         id="rect1665"
         width="50.587975"
         height="15.426756"
         x="99.512779"
         y="134.38168" />
    </clipPath>
    <clipPath
       clipPathUnits="userSpaceOnUse"
       id="clipPath1675">
      <rect
         style="fill:#000000;fill-opacity:1;stroke:#0000b8;stroke-width:0.41373;stroke-dasharray:none;stroke-opacity:1"
         id="rect1677"
         width="52.314762"
         height="21.428423"
         x="99.877625"
         y="132.94707" />
    </clipPath>
    <clipPath
       clipPathUnits="userSpaceOnUse"
       id="clipPath1689">
      <rect
         style="fill:#000000;fill-opacity:1;stroke:#0000b8;stroke-width:0.41373;stroke-dasharray:none;stroke-opacity:1"
         id="rect1691"
         width="49.897476"
         height="19.848801"
         x="100.0169"
         y="134.58902" />
    </clipPath>
  </defs>
  <g
     id="layer1"
     transform="translate(-74.52883,-89.971349)">
    <circle
       style="fill:none;stroke:#000000;stroke-width:0.264999"
       id="path1518"
       cx="110.16737"
       cy="134.32147"
       r="35.497517" />
  </g>
  <g
     id="layer2"
     transform="translate(-74.52883,-89.971349)">
    <ellipse
       style="display:inline;fill:none;stroke:#000000;stroke-width:0.22;stroke-dasharray:1.76, 0.88;stroke-dashoffset:0;stroke-opacity:1"
       id="path1628-3"
       cx="110.16756"
       cy="134.45956"
       rx="35.507347"
       ry="14.509607"
       clip-path="url(#clipPath3965)" />
  </g>
  <g
     id="layer3"
     style="display:inline"
     transform="translate(-74.52883,-89.971349)">
    <ellipse
       style="display:inline;fill:none;stroke:#000000;stroke-width:0.22002"
       id="path1628"
       cx="110.14619"
       cy="134.49911"
       rx="35.507347"
       ry="14.509607"
       clip-path="url(#clipPath3961)" />
  </g>
  <g
     id="layer6"
     transform="translate(-74.52883,-89.971349)">
    <ellipse
       style="display:inline;fill:none;stroke:#0000b8;stroke-width:0.607061;stroke-dasharray:none;stroke-opacity:1"
       id="path1628-9"
       cx="110.14619"
       cy="134.49911"
       rx="35.507347"
       ry="14.509607"
       clip-path="url(#clipPath1689)"
       transform="matrix(1.0017947,0,0,1.068259,-0.00430785,-10.205492)" />
    <path
       style="fill:#0000a7;fill-opacity:0.406853;stroke:none;stroke-width:0.211;stroke-dasharray:none;stroke-opacity:0"
       id="path1753"
       d="m 145.94513,133.26175 a 36.974628,15.517976 0 0 1 -14.08729,12.37775 36.974628,15.517976 0 0 1 -31.969062,2.85373 l 9.084472,-15.0423 z" />
    <g
       transform="matrix(0.83977332,0,0,0.83977332,119.78294,151.04017)"
       ns1:version="1.8.2"
       ns1:texconverter="pdflatex"
       ns1:pdfconverter="inkscape"
       ns1:text="$\\psi(t)$"
       ns1:preamble="/home/fox/.config/inkscape/extensions/textext/default_packages.tex"
       ns1:scale="1.0"
       ns1:alignment="middle center"
       ns1:stroke-to-path="0"
       ns1:inkscapeversion="1.2.2"
       ns1:jacobian_sqrt="0.352778"
       id="g546">
      <defs
         id="id-d30c3318-11d5-4a85-ace9-2dafbe81d205">
        <g
           id="id-a543fe3d-f43f-4427-90d0-305b48367e05">
          <symbol
             overflow="visible"
             id="id-baee28ce-a017-4e61-8f9a-2d18e0099ed0">
            <path
               style="stroke:none;stroke-width:0"
               d=""
               id="id-0e987d4d-cd45-441a-a997-eae9577ab50f" />
          </symbol>
          <symbol
             overflow="visible"
             id="id-53bca74a-63ba-4d88-9a71-dd8b6c378318">
            <path
               style="stroke:none;stroke-width:0"
               d="m 4.8125,-6.65625 c 0,-0.046875 0.015625,-0.109375 0.015625,-0.15625 0,-0.09375 -0.0625,-0.109375 -0.109375,-0.109375 -0.109375,0 -0.109375,0.03125 -0.15625,0.203125 L 2.90625,-0.125 c -0.75,-0.09375 -1.125,-0.46875 -1.125,-1.125 0,-0.203125 0,-0.453125 0.53125,-1.84375 0.046875,-0.125 0.109375,-0.296875 0.109375,-0.5 0,-0.4375 -0.3125,-0.8125 -0.8125,-0.8125 -0.953125,0 -1.3125,1.453125 -1.3125,1.53125 0,0.109375 0.09375,0.109375 0.109375,0.109375 0.109375,0 0.109375,-0.03125 0.15625,-0.1875 0.28125,-0.9375 0.671875,-1.234375 1.015625,-1.234375 0.078125,0 0.25,0 0.25,0.3125 0,0.265625 -0.109375,0.515625 -0.234375,0.859375 C 1.109375,-1.75 1.109375,-1.5 1.109375,-1.328125 1.109375,-0.375 1.890625,0.03125 2.84375,0.09375 2.765625,0.453125 2.765625,0.46875 2.625,1 2.609375,1.109375 2.40625,1.90625 2.40625,1.9375 c 0,0.015625 0,0.109375 0.109375,0.109375 0.03125,0 0.078125,0 0.09375,-0.046875 0.03125,-0.015625 0.09375,-0.265625 0.125,-0.40625 l 0.375,-1.484375 c 0.375,0 1.25,0 2.1875,-1.0625 0.40625,-0.46875 0.609375,-0.90625 0.71875,-1.203125 0.09375,-0.25 0.3125,-1.109375 0.3125,-1.546875 0,-0.5625 -0.265625,-0.703125 -0.4375,-0.703125 -0.25,0 -0.5,0.265625 -0.5,0.484375 0,0.125 0.0625,0.1875 0.15625,0.265625 0.109375,0.109375 0.359375,0.359375 0.359375,0.84375 0,0.640625 -0.515625,1.453125 -0.875,1.8125 -0.875,0.890625 -1.515625,0.890625 -1.875,0.890625 z m 0,0"
               id="id-0aace3bf-465d-4e98-b25c-f3922c42d263" />
          </symbol>
          <symbol
             overflow="visible"
             id="id-32266d64-1235-49e6-be0f-3c7134cf5490">
            <path
               style="stroke:none;stroke-width:0"
               d="m 2.046875,-3.984375 h 0.9375 c 0.203125,0 0.3125,0 0.3125,-0.203125 0,-0.109375 -0.109375,-0.109375 -0.28125,-0.109375 h -0.875 C 2.5,-5.71875 2.546875,-5.90625 2.546875,-5.96875 c 0,-0.171875 -0.125,-0.265625 -0.296875,-0.265625 -0.03125,0 -0.3125,0 -0.390625,0.359375 L 1.46875,-4.296875 h -0.9375 c -0.203125,0 -0.296875,0 -0.296875,0.1875 0,0.125 0.078125,0.125 0.28125,0.125 h 0.875 C 0.671875,-1.15625 0.625,-0.984375 0.625,-0.8125 0.625,-0.265625 1,0.109375 1.546875,0.109375 2.5625,0.109375 3.125,-1.34375 3.125,-1.421875 3.125,-1.53125 3.046875,-1.53125 3.015625,-1.53125 2.921875,-1.53125 2.90625,-1.5 2.859375,-1.390625 2.4375,-0.34375 1.90625,-0.109375 1.5625,-0.109375 c -0.203125,0 -0.3125,-0.125 -0.3125,-0.453125 0,-0.25 0.03125,-0.3125 0.0625,-0.484375 z m 0,0"
               id="id-ac4bd434-e8b2-44ae-96d3-aeda9c77a950" />
          </symbol>
          <symbol
             overflow="visible"
             id="id-bcaf82ff-4008-4424-8a6d-bf43ef754541">
            <path
               style="stroke:none;stroke-width:0"
               d=""
               id="id-10d21fb9-6264-4e0e-bcdf-6c32ca643c95" />
          </symbol>
          <symbol
             overflow="visible"
             id="id-2e162d79-ef4e-44ff-9e73-64ba91e6af88">
            <path
               style="stroke:none;stroke-width:0"
               d="m 3.296875,2.390625 c 0,-0.03125 0,-0.046875 -0.171875,-0.21875 C 1.890625,0.921875 1.5625,-0.96875 1.5625,-2.5 c 0,-1.734375 0.375,-3.46875 1.609375,-4.703125 0.125,-0.125 0.125,-0.140625 0.125,-0.171875 0,-0.078125 -0.03125,-0.109375 -0.09375,-0.109375 -0.109375,0 -1,0.6875 -1.59375,1.953125 -0.5,1.09375 -0.625,2.203125 -0.625,3.03125 0,0.78125 0.109375,1.984375 0.65625,3.125 C 2.25,1.84375 3.09375,2.5 3.203125,2.5 c 0.0625,0 0.09375,-0.03125 0.09375,-0.109375 z m 0,0"
               id="id-7366a46b-2b8f-4491-8941-ee01403637c6" />
          </symbol>
          <symbol
             overflow="visible"
             id="id-aecd9e44-b0c2-4eac-ba6d-43ce274af77b">
            <path
               style="stroke:none;stroke-width:0"
               d="m 2.875,-2.5 c 0,-0.765625 -0.109375,-1.96875 -0.65625,-3.109375 -0.59375,-1.21875 -1.453125,-1.875 -1.546875,-1.875 -0.0625,0 -0.109375,0.046875 -0.109375,0.109375 0,0.03125 0,0.046875 0.1875,0.234375 0.984375,0.984375 1.546875,2.5625 1.546875,4.640625 0,1.71875 -0.359375,3.46875 -1.59375,4.71875 C 0.5625,2.34375 0.5625,2.359375 0.5625,2.390625 0.5625,2.453125 0.609375,2.5 0.671875,2.5 0.765625,2.5 1.671875,1.8125 2.25,0.546875 2.765625,-0.546875 2.875,-1.65625 2.875,-2.5 Z m 0,0"
               id="id-485ac0c9-eaa1-48e0-8e13-7e0bba1f125b" />
          </symbol>
        </g>
      </defs>
      <g
         id="id-a09531c8-0874-432b-9cc4-5d900f6fbc8d"
         transform="translate(-149.009,-127.281)">
        <g
           style="fill:#000000;fill-opacity:1"
           id="id-07f5cfdf-7826-44b2-9bf3-86a71b1af257">
          <g
             transform="translate(148.712,134.765)"
             id="g530">
            <path
               style="stroke:none;stroke-width:0"
               d="m 4.8125,-6.65625 c 0,-0.046875 0.015625,-0.109375 0.015625,-0.15625 0,-0.09375 -0.0625,-0.109375 -0.109375,-0.109375 -0.109375,0 -0.109375,0.03125 -0.15625,0.203125 L 2.90625,-0.125 c -0.75,-0.09375 -1.125,-0.46875 -1.125,-1.125 0,-0.203125 0,-0.453125 0.53125,-1.84375 0.046875,-0.125 0.109375,-0.296875 0.109375,-0.5 0,-0.4375 -0.3125,-0.8125 -0.8125,-0.8125 -0.953125,0 -1.3125,1.453125 -1.3125,1.53125 0,0.109375 0.09375,0.109375 0.109375,0.109375 0.109375,0 0.109375,-0.03125 0.15625,-0.1875 0.28125,-0.9375 0.671875,-1.234375 1.015625,-1.234375 0.078125,0 0.25,0 0.25,0.3125 0,0.265625 -0.109375,0.515625 -0.234375,0.859375 C 1.109375,-1.75 1.109375,-1.5 1.109375,-1.328125 1.109375,-0.375 1.890625,0.03125 2.84375,0.09375 2.765625,0.453125 2.765625,0.46875 2.625,1 2.609375,1.109375 2.40625,1.90625 2.40625,1.9375 c 0,0.015625 0,0.109375 0.109375,0.109375 0.03125,0 0.078125,0 0.09375,-0.046875 0.03125,-0.015625 0.09375,-0.265625 0.125,-0.40625 l 0.375,-1.484375 c 0.375,0 1.25,0 2.1875,-1.0625 0.40625,-0.46875 0.609375,-0.90625 0.71875,-1.203125 0.09375,-0.25 0.3125,-1.109375 0.3125,-1.546875 0,-0.5625 -0.265625,-0.703125 -0.4375,-0.703125 -0.25,0 -0.5,0.265625 -0.5,0.484375 0,0.125 0.0625,0.1875 0.15625,0.265625 0.109375,0.109375 0.359375,0.359375 0.359375,0.84375 0,0.640625 -0.515625,1.453125 -0.875,1.8125 -0.875,0.890625 -1.515625,0.890625 -1.875,0.890625 z m 0,0"
               id="id-75012716-5908-4200-8e99-a73ce30eb336" />
          </g>
        </g>
        <g
           style="fill:#000000;fill-opacity:1"
           id="id-5726c6ca-48ae-4f54-aa79-8e651ced8d24">
          <g
             transform="translate(155.559,134.765)"
             id="g534">
            <path
               style="stroke:none;stroke-width:0"
               d="m 3.296875,2.390625 c 0,-0.03125 0,-0.046875 -0.171875,-0.21875 C 1.890625,0.921875 1.5625,-0.96875 1.5625,-2.5 c 0,-1.734375 0.375,-3.46875 1.609375,-4.703125 0.125,-0.125 0.125,-0.140625 0.125,-0.171875 0,-0.078125 -0.03125,-0.109375 -0.09375,-0.109375 -0.109375,0 -1,0.6875 -1.59375,1.953125 -0.5,1.09375 -0.625,2.203125 -0.625,3.03125 0,0.78125 0.109375,1.984375 0.65625,3.125 C 2.25,1.84375 3.09375,2.5 3.203125,2.5 c 0.0625,0 0.09375,-0.03125 0.09375,-0.109375 z m 0,0"
               id="id-35d7b624-2632-4929-bdcd-4e63ea75d565" />
          </g>
        </g>
        <g
           style="fill:#000000;fill-opacity:1"
           id="id-4f277af0-9913-49c3-90e1-5a15e63322cf">
          <g
             transform="translate(159.434,134.765)"
             id="g538">
            <path
               style="stroke:none;stroke-width:0"
               d="m 2.046875,-3.984375 h 0.9375 c 0.203125,0 0.3125,0 0.3125,-0.203125 0,-0.109375 -0.109375,-0.109375 -0.28125,-0.109375 h -0.875 C 2.5,-5.71875 2.546875,-5.90625 2.546875,-5.96875 c 0,-0.171875 -0.125,-0.265625 -0.296875,-0.265625 -0.03125,0 -0.3125,0 -0.390625,0.359375 L 1.46875,-4.296875 h -0.9375 c -0.203125,0 -0.296875,0 -0.296875,0.1875 0,0.125 0.078125,0.125 0.28125,0.125 h 0.875 C 0.671875,-1.15625 0.625,-0.984375 0.625,-0.8125 0.625,-0.265625 1,0.109375 1.546875,0.109375 2.5625,0.109375 3.125,-1.34375 3.125,-1.421875 3.125,-1.53125 3.046875,-1.53125 3.015625,-1.53125 2.921875,-1.53125 2.90625,-1.5 2.859375,-1.390625 2.4375,-0.34375 1.90625,-0.109375 1.5625,-0.109375 c -0.203125,0 -0.3125,-0.125 -0.3125,-0.453125 0,-0.25 0.03125,-0.3125 0.0625,-0.484375 z m 0,0"
               id="id-7980c10e-6e5a-45c6-92fe-8ad657a539b6" />
          </g>
        </g>
        <g
           style="fill:#000000;fill-opacity:1"
           id="id-beb10494-c700-4ba4-867d-ca01ff6325ea">
          <g
             transform="translate(163.031,134.765)"
             id="g542">
            <path
               style="stroke:none;stroke-width:0"
               d="m 2.875,-2.5 c 0,-0.765625 -0.109375,-1.96875 -0.65625,-3.109375 -0.59375,-1.21875 -1.453125,-1.875 -1.546875,-1.875 -0.0625,0 -0.109375,0.046875 -0.109375,0.109375 0,0.03125 0,0.046875 0.1875,0.234375 0.984375,0.984375 1.546875,2.5625 1.546875,4.640625 0,1.71875 -0.359375,3.46875 -1.59375,4.71875 C 0.5625,2.34375 0.5625,2.359375 0.5625,2.390625 0.5625,2.453125 0.609375,2.5 0.671875,2.5 0.765625,2.5 1.671875,1.8125 2.25,0.546875 2.765625,-0.546875 2.875,-1.65625 2.875,-2.5 Z m 0,0"
               id="id-342d83c0-7d52-46a8-85bd-8d48195e206b" />
          </g>
        </g>
      </g>
    </g>
    <path
       style="fill:#000000;stroke:#0000b8;stroke-width:0.0280001;stroke-opacity:1;marker-end:url(#Arrow4)"
       d="M 128.02563,146.95938 Z"
       id="path3953" />
  </g>
  <g
     id="layer4"
     transform="translate(-74.52883,-89.971349)">
    <path
       style="fill:none;stroke:#000000;stroke-width:0.244;stroke-dasharray:none;marker-end:url(#Arrow5)"
       d="m 108.8146,133.37184 h 41.17695"
       id="path912" />
    <path
       style="fill:none;fill-opacity:1;stroke:#000000;stroke-width:0.244;stroke-dasharray:none;stroke-opacity:1;marker-end:url(#Arrow5)"
       d="M 108.91045,133.27787 V 93.432224"
       id="path3861" />
    <path
       style="fill:none;fill-opacity:1;stroke:#000000;stroke-width:0.244;stroke-dasharray:none;stroke-opacity:1;marker-end:url(#Arrow5)"
       d="M 108.92164,133.30431 98.436277,151.46548"
       id="path3972" />
    <circle
       style="fill:#000000;fill-opacity:1;stroke:#000000;stroke-width:0.32;stroke-dasharray:none"
       id="path966"
       cx="108.97007"
       cy="133.36116"
       r="0.5005042" />
    <circle
       style="fill:#0000b8;fill-opacity:1;stroke:#0000b8;stroke-width:0.32;stroke-dasharray:none;stroke-opacity:1"
       id="path966-1"
       cx="100.12577"
       cy="148.32933"
       r="0.5005042" />
    <circle
       style="fill:#0000b8;fill-opacity:1;stroke:#0000b8;stroke-width:0.32;stroke-dasharray:none;stroke-opacity:1"
       id="path966-2"
       cx="145.89313"
       cy="133.42615"
       r="0.5005042" />
    <g
       transform="matrix(0.94079515,0,0,0.94079515,101.59878,89.971584)"
       ns1:version="1.8.2"
       ns1:texconverter="pdflatex"
       ns1:pdfconverter="inkscape"
       ns1:text="$z$"
       ns1:preamble="/home/fox/.config/inkscape/extensions/textext/default_packages.tex"
       ns1:scale="1.0"
       ns1:alignment="middle center"
       ns1:stroke-to-path="0"
       ns1:inkscapeversion="1.2.2"
       ns1:jacobian_sqrt="0.352778"
       id="g227">
      <defs
         id="id-b9f97aff-151c-49e0-be0a-71f1945b7c96">
        <g
           id="id-59a90880-9605-4290-918a-43608cfd08df">
          <symbol
             overflow="visible"
             id="id-23d60ae7-5742-422a-994b-d381b9df9eb8">
            <path
               style="stroke:none;stroke-width:0"
               d=""
               id="id-26e8854e-4445-4474-b09e-222d2bcea8c6" />
          </symbol>
          <symbol
             overflow="visible"
             id="id-f0167d4d-51b2-44d3-b97a-e2155f4cc009">
            <path
               style="stroke:none;stroke-width:0"
               d="m 1.328125,-0.828125 c 0.53125,-0.578125 0.828125,-0.828125 1.1875,-1.140625 0,0 0.609375,-0.53125 0.96875,-0.890625 C 4.4375,-3.78125 4.65625,-4.265625 4.65625,-4.3125 c 0,-0.09375 -0.09375,-0.09375 -0.109375,-0.09375 -0.078125,0 -0.09375,0.015625 -0.15625,0.109375 -0.296875,0.484375 -0.5,0.640625 -0.734375,0.640625 -0.25,0 -0.359375,-0.15625 -0.515625,-0.328125 -0.1875,-0.21875 -0.359375,-0.421875 -0.6875,-0.421875 -0.75,0 -1.203125,0.921875 -1.203125,1.140625 0,0.046875 0.03125,0.109375 0.109375,0.109375 0.09375,0 0.109375,-0.046875 0.140625,-0.109375 0.1875,-0.46875 0.765625,-0.46875 0.84375,-0.46875 0.203125,0 0.390625,0.0625 0.625,0.140625 0.40625,0.15625 0.515625,0.15625 0.765625,0.15625 -0.359375,0.421875 -1.1875,1.140625 -1.375,1.296875 l -0.90625,0.84375 C 0.78125,-0.625 0.421875,-0.0625 0.421875,0.015625 c 0,0.09375 0.109375,0.09375 0.125,0.09375 0.078125,0 0.09375,-0.015625 0.15625,-0.125 0.234375,-0.359375 0.53125,-0.625 0.859375,-0.625 0.21875,0 0.328125,0.09375 0.578125,0.375 0.15625,0.21875 0.34375,0.375 0.625,0.375 1,0 1.578125,-1.265625 1.578125,-1.53125 0,-0.046875 -0.046875,-0.109375 -0.125,-0.109375 -0.09375,0 -0.109375,0.0625 -0.140625,0.140625 C 3.84375,-0.75 3.203125,-0.5625 2.875,-0.5625 c -0.1875,0 -0.375,-0.0625 -0.578125,-0.125 -0.34375,-0.125 -0.5,-0.171875 -0.703125,-0.171875 -0.015625,0 -0.171875,0 -0.265625,0.03125 z m 0,0"
               id="id-d4690b5e-5a91-43d9-9175-e1f209cb1883" />
          </symbol>
        </g>
      </defs>
      <g
         id="id-7ce8d70b-a49e-4c39-bacd-1d6323672f62"
         transform="translate(-149.134,-130.359)">
        <g
           style="fill:#000000;fill-opacity:1"
           id="id-d46d05d6-8280-452d-b170-8c78f3c90b4b">
          <g
             transform="translate(148.712,134.765)"
             id="g223">
            <path
               style="stroke:none;stroke-width:0"
               d="m 1.328125,-0.828125 c 0.53125,-0.578125 0.828125,-0.828125 1.1875,-1.140625 0,0 0.609375,-0.53125 0.96875,-0.890625 C 4.4375,-3.78125 4.65625,-4.265625 4.65625,-4.3125 c 0,-0.09375 -0.09375,-0.09375 -0.109375,-0.09375 -0.078125,0 -0.09375,0.015625 -0.15625,0.109375 -0.296875,0.484375 -0.5,0.640625 -0.734375,0.640625 -0.25,0 -0.359375,-0.15625 -0.515625,-0.328125 -0.1875,-0.21875 -0.359375,-0.421875 -0.6875,-0.421875 -0.75,0 -1.203125,0.921875 -1.203125,1.140625 0,0.046875 0.03125,0.109375 0.109375,0.109375 0.09375,0 0.109375,-0.046875 0.140625,-0.109375 0.1875,-0.46875 0.765625,-0.46875 0.84375,-0.46875 0.203125,0 0.390625,0.0625 0.625,0.140625 0.40625,0.15625 0.515625,0.15625 0.765625,0.15625 -0.359375,0.421875 -1.1875,1.140625 -1.375,1.296875 l -0.90625,0.84375 C 0.78125,-0.625 0.421875,-0.0625 0.421875,0.015625 c 0,0.09375 0.109375,0.09375 0.125,0.09375 0.078125,0 0.09375,-0.015625 0.15625,-0.125 0.234375,-0.359375 0.53125,-0.625 0.859375,-0.625 0.21875,0 0.328125,0.09375 0.578125,0.375 0.15625,0.21875 0.34375,0.375 0.625,0.375 1,0 1.578125,-1.265625 1.578125,-1.53125 0,-0.046875 -0.046875,-0.109375 -0.125,-0.109375 -0.09375,0 -0.109375,0.0625 -0.140625,0.140625 C 3.84375,-0.75 3.203125,-0.5625 2.875,-0.5625 c -0.1875,0 -0.375,-0.0625 -0.578125,-0.125 -0.34375,-0.125 -0.5,-0.171875 -0.703125,-0.171875 -0.015625,0 -0.171875,0 -0.265625,0.03125 z m 0,0"
               id="id-304c51e1-fa35-451e-ac79-37768f326393" />
          </g>
        </g>
      </g>
    </g>
    <g
       transform="matrix(0.94079515,0,0,0.94079515,91.862217,149.29611)"
       ns1:version="1.8.2"
       ns1:texconverter="pdflatex"
       ns1:pdfconverter="inkscape"
       ns1:text="$x$"
       ns1:preamble="/home/fox/.config/inkscape/extensions/textext/default_packages.tex"
       ns1:scale="1.0"
       ns1:alignment="middle center"
       ns1:stroke-to-path="0"
       ns1:inkscapeversion="1.2.2"
       ns1:jacobian_sqrt="0.352778"
       id="g491">
      <defs
         id="id-0192b0f6-b3b0-4536-a661-8023c30ef7b6">
        <g
           id="id-a7385cc4-bc28-4424-88ea-1958c1e4af8e">
          <symbol
             overflow="visible"
             id="id-009161e9-92eb-4d04-af9b-25b833d623a0">
            <path
               style="stroke:none;stroke-width:0"
               d=""
               id="id-93c3839b-c506-48b9-a490-9ad71caedb15" />
          </symbol>
          <symbol
             overflow="visible"
             id="id-f0a64d24-9253-47f4-9f38-ea0a815ed34f">
            <path
               style="stroke:none;stroke-width:0"
               d="M 3.328125,-3.015625 C 3.390625,-3.265625 3.625,-4.1875 4.3125,-4.1875 c 0.046875,0 0.296875,0 0.5,0.125 C 4.53125,-4 4.34375,-3.765625 4.34375,-3.515625 c 0,0.15625 0.109375,0.34375 0.375,0.34375 0.21875,0 0.53125,-0.171875 0.53125,-0.578125 0,-0.515625 -0.578125,-0.65625 -0.921875,-0.65625 -0.578125,0 -0.921875,0.53125 -1.046875,0.75 -0.25,-0.65625 -0.78125,-0.75 -1.078125,-0.75 -1.03125,0 -1.609375,1.28125 -1.609375,1.53125 0,0.109375 0.109375,0.109375 0.125,0.109375 0.078125,0 0.109375,-0.03125 0.125,-0.109375 0.34375,-1.0625 1,-1.3125 1.34375,-1.3125 0.1875,0 0.53125,0.09375 0.53125,0.671875 0,0.3125 -0.171875,0.96875 -0.53125,2.375 -0.15625,0.609375 -0.515625,1.03125 -0.953125,1.03125 -0.0625,0 -0.28125,0 -0.5,-0.125 0.25,-0.0625 0.46875,-0.265625 0.46875,-0.546875 0,-0.265625 -0.21875,-0.34375 -0.359375,-0.34375 -0.3125,0 -0.546875,0.25 -0.546875,0.578125 0,0.453125 0.484375,0.65625 0.921875,0.65625 0.671875,0 1.03125,-0.703125 1.046875,-0.75 0.125,0.359375 0.484375,0.75 1.078125,0.75 1.03125,0 1.59375,-1.28125 1.59375,-1.53125 0,-0.109375 -0.078125,-0.109375 -0.109375,-0.109375 -0.09375,0 -0.109375,0.046875 -0.140625,0.109375 -0.328125,1.078125 -1,1.3125 -1.3125,1.3125 -0.390625,0 -0.546875,-0.3125 -0.546875,-0.65625 0,-0.21875 0.046875,-0.4375 0.15625,-0.875 z m 0,0"
               id="id-2e59c0da-68a5-4c14-a9ec-0b8bd1db968b" />
          </symbol>
        </g>
      </defs>
      <g
         id="id-a75d15b7-09ec-416f-ab33-fb51c132acf4"
         transform="translate(-149.009,-130.359)">
        <g
           style="fill:#000000;fill-opacity:1"
           id="id-d62048d8-7d54-4b29-9a25-37df65e334b6">
          <g
             transform="translate(148.712,134.765)"
             id="g487">
            <path
               style="stroke:none;stroke-width:0"
               d="M 3.328125,-3.015625 C 3.390625,-3.265625 3.625,-4.1875 4.3125,-4.1875 c 0.046875,0 0.296875,0 0.5,0.125 C 4.53125,-4 4.34375,-3.765625 4.34375,-3.515625 c 0,0.15625 0.109375,0.34375 0.375,0.34375 0.21875,0 0.53125,-0.171875 0.53125,-0.578125 0,-0.515625 -0.578125,-0.65625 -0.921875,-0.65625 -0.578125,0 -0.921875,0.53125 -1.046875,0.75 -0.25,-0.65625 -0.78125,-0.75 -1.078125,-0.75 -1.03125,0 -1.609375,1.28125 -1.609375,1.53125 0,0.109375 0.109375,0.109375 0.125,0.109375 0.078125,0 0.109375,-0.03125 0.125,-0.109375 0.34375,-1.0625 1,-1.3125 1.34375,-1.3125 0.1875,0 0.53125,0.09375 0.53125,0.671875 0,0.3125 -0.171875,0.96875 -0.53125,2.375 -0.15625,0.609375 -0.515625,1.03125 -0.953125,1.03125 -0.0625,0 -0.28125,0 -0.5,-0.125 0.25,-0.0625 0.46875,-0.265625 0.46875,-0.546875 0,-0.265625 -0.21875,-0.34375 -0.359375,-0.34375 -0.3125,0 -0.546875,0.25 -0.546875,0.578125 0,0.453125 0.484375,0.65625 0.921875,0.65625 0.671875,0 1.03125,-0.703125 1.046875,-0.75 0.125,0.359375 0.484375,0.75 1.078125,0.75 1.03125,0 1.59375,-1.28125 1.59375,-1.53125 0,-0.109375 -0.078125,-0.109375 -0.109375,-0.109375 -0.09375,0 -0.109375,0.046875 -0.140625,0.109375 -0.328125,1.078125 -1,1.3125 -1.3125,1.3125 -0.390625,0 -0.546875,-0.3125 -0.546875,-0.65625 0,-0.21875 0.046875,-0.4375 0.15625,-0.875 z m 0,0"
               id="id-78b5d674-70f4-4ad7-b571-26123b470cd9" />
          </g>
        </g>
      </g>
    </g>
    <g
       transform="matrix(0.94079515,0,0,0.94079515,150.33607,136.09361)"
       ns1:version="1.8.2"
       ns1:texconverter="pdflatex"
       ns1:pdfconverter="inkscape"
       ns1:text="$y$"
       ns1:preamble="/home/fox/.config/inkscape/extensions/textext/default_packages.tex"
       ns1:scale="1.0"
       ns1:alignment="middle center"
       ns1:stroke-to-path="0"
       ns1:inkscapeversion="1.2.2"
       ns1:jacobian_sqrt="0.352778"
       id="g619">
      <defs
         id="id-b3a50cf3-b597-4596-86c1-dd4907148e88">
        <g
           id="id-b01141eb-1282-4ce0-a589-0b32c5304d1b">
          <symbol
             overflow="visible"
             id="id-7290fa8f-f607-46b5-8b89-6e4318585e54">
            <path
               style="stroke:none;stroke-width:0"
               d=""
               id="id-8cfb6567-f81a-4a03-9056-7d71e0a3f14d" />
          </symbol>
          <symbol
             overflow="visible"
             id="id-b0994738-707e-4673-b821-9bf74eb897ac">
            <path
               style="stroke:none;stroke-width:0"
               d="m 4.84375,-3.796875 c 0.046875,-0.140625 0.046875,-0.15625 0.046875,-0.234375 0,-0.171875 -0.140625,-0.265625 -0.296875,-0.265625 -0.09375,0 -0.25,0.0625 -0.34375,0.203125 -0.015625,0.0625 -0.109375,0.359375 -0.140625,0.546875 -0.078125,0.25 -0.140625,0.53125 -0.203125,0.796875 l -0.453125,1.796875 c -0.03125,0.140625 -0.46875,0.84375 -1.125,0.84375 -0.5,0 -0.609375,-0.4375 -0.609375,-0.8125 C 1.71875,-1.375 1.890625,-2 2.21875,-2.875 2.375,-3.28125 2.421875,-3.390625 2.421875,-3.59375 c 0,-0.4375 -0.3125,-0.8125 -0.8125,-0.8125 -0.953125,0 -1.3125,1.453125 -1.3125,1.53125 0,0.109375 0.09375,0.109375 0.109375,0.109375 0.109375,0 0.109375,-0.03125 0.15625,-0.1875 0.28125,-0.9375 0.671875,-1.234375 1.015625,-1.234375 0.078125,0 0.25,0 0.25,0.3125 0,0.25 -0.109375,0.515625 -0.171875,0.703125 -0.40625,1.0625 -0.578125,1.625 -0.578125,2.09375 0,0.890625 0.625,1.1875 1.21875,1.1875 0.390625,0 0.71875,-0.171875 1,-0.453125 -0.125,0.515625 -0.25,1.015625 -0.640625,1.546875 -0.265625,0.328125 -0.640625,0.625 -1.09375,0.625 -0.140625,0 -0.59375,-0.03125 -0.765625,-0.421875 0.15625,0 0.296875,0 0.421875,-0.125 C 1.328125,1.203125 1.421875,1.0625 1.421875,0.875 1.421875,0.5625 1.15625,0.53125 1.0625,0.53125 0.828125,0.53125 0.5,0.6875 0.5,1.171875 c 0,0.5 0.4375,0.875 1.0625,0.875 1.015625,0 2.046875,-0.90625 2.328125,-2.03125 z m 0,0"
               id="id-52b72d5f-7589-4d8b-a42a-19f5d9615e10" />
          </symbol>
        </g>
      </defs>
      <g
         id="id-af640f13-a639-44cd-9c36-00535e1d5fa7"
         transform="translate(-149.009,-130.359)">
        <g
           style="fill:#000000;fill-opacity:1"
           id="id-48d1a08d-e349-48e0-8e75-6fddc77994e8">
          <g
             transform="translate(148.712,134.765)"
             id="g615">
            <path
               style="stroke:none;stroke-width:0"
               d="m 4.84375,-3.796875 c 0.046875,-0.140625 0.046875,-0.15625 0.046875,-0.234375 0,-0.171875 -0.140625,-0.265625 -0.296875,-0.265625 -0.09375,0 -0.25,0.0625 -0.34375,0.203125 -0.015625,0.0625 -0.109375,0.359375 -0.140625,0.546875 -0.078125,0.25 -0.140625,0.53125 -0.203125,0.796875 l -0.453125,1.796875 c -0.03125,0.140625 -0.46875,0.84375 -1.125,0.84375 -0.5,0 -0.609375,-0.4375 -0.609375,-0.8125 C 1.71875,-1.375 1.890625,-2 2.21875,-2.875 2.375,-3.28125 2.421875,-3.390625 2.421875,-3.59375 c 0,-0.4375 -0.3125,-0.8125 -0.8125,-0.8125 -0.953125,0 -1.3125,1.453125 -1.3125,1.53125 0,0.109375 0.09375,0.109375 0.109375,0.109375 0.109375,0 0.109375,-0.03125 0.15625,-0.1875 0.28125,-0.9375 0.671875,-1.234375 1.015625,-1.234375 0.078125,0 0.25,0 0.25,0.3125 0,0.25 -0.109375,0.515625 -0.171875,0.703125 -0.40625,1.0625 -0.578125,1.625 -0.578125,2.09375 0,0.890625 0.625,1.1875 1.21875,1.1875 0.390625,0 0.71875,-0.171875 1,-0.453125 -0.125,0.515625 -0.25,1.015625 -0.640625,1.546875 -0.265625,0.328125 -0.640625,0.625 -1.09375,0.625 -0.140625,0 -0.59375,-0.03125 -0.765625,-0.421875 0.15625,0 0.296875,0 0.421875,-0.125 C 1.328125,1.203125 1.421875,1.0625 1.421875,0.875 1.421875,0.5625 1.15625,0.53125 1.0625,0.53125 0.828125,0.53125 0.5,0.6875 0.5,1.171875 c 0,0.5 0.4375,0.875 1.0625,0.875 1.015625,0 2.046875,-0.90625 2.328125,-2.03125 z m 0,0"
               id="id-0eca5320-c08c-4525-b3bf-21b919d9ec67" />
          </g>
        </g>
      </g>
    </g>
  </g>
</svg>
